<?xml version="1.0" encoding="UTF-8" standalone="no"?>
<svg
   width="182"
   height="182"
   viewBox="0 0 182 182"
   fill="none"
   version="1.1"
   id="svg43"
   xmlns="http://www.w3.org/2000/svg"
   xmlns:svg="http://www.w3.org/2000/svg">
  <path
     fill-rule="evenodd"
     clip-rule="evenodd"
     d="m 45.50758,169.79468 c 43.517311,25.12538 99.16267,10.21545 124.2871,-33.30223 C 194.92006,92.97504 180.01013,37.329591 136.49245,12.204875 92.97504,-12.919934 37.329591,1.9902322 12.204875,45.50758 -12.919934,89.024891 1.9902322,144.67025 45.50758,169.79468 Z M 26.720871,105.82171 c -3.155916,16.48881 -2.375286,31.80777 2.289635,43.80381 C 11.551458,131.1788 3.3237945,105.85266 6.2771281,80.922422 c 2.1500759,3.877819 4.9192429,7.874687 8.2099699,11.910395 3.482578,4.270716 7.586489,8.631213 12.233773,12.988893 z M 18.894311,89.23935 C 13.504205,82.628812 9.8391576,76.431339 8.0492821,71.030538 9.923403,63.260267 12.929873,55.624806 17.129568,48.350813 23.110799,37.991077 30.936984,29.360621 39.95358,22.634879 c 2.148444,3.871157 4.913435,7.860802 8.198159,11.889193 2.011662,2.467131 4.230654,4.963907 6.641872,7.472879 0.419913,-0.929606 1.007004,-1.7851 1.742133,-2.52023 0.649102,-0.649101 1.392112,-1.182812 2.19704,-1.587808 C 56.48818,35.545241 54.425858,33.220239 52.558858,30.930511 49.268224,26.894709 46.6205,23.012857 44.649835,19.372202 64.02007,6.8601564 87.970417,2.5590758 110.77604,8.0029002 94.843544,10.454862 77.442283,20.791145 62.289569,36.982947 c 0.09231,-0.003 0.184908,-0.0045 0.277691,-0.0045 h 7.679553 C 77.235985,30.147818 84.588877,24.644383 91.904617,20.652956 106.8668,12.489884 120.85828,11.004708 131.5306,16.02284 l -6.66176,11.539171 c 0.20639,0.170367 0.40434,0.351054 0.59572,0.541685 1.47383,1.474293 2.35287,3.432762 2.4814,5.501651 l 8.46393,-14.660001 c 9.23134,6.866933 14.65944,19.499698 15.06003,36.097905 0.2608,10.768674 -1.63613,22.85422 -5.77616,35.307143 -5.67671,-1.715021 -11.62172,-3.861963 -17.73092,-6.426286 v 6.152442 c 11.95102,4.856118 23.32226,8.166828 33.37166,9.79357 5.13071,0.83026 9.96778,1.22991 14.39488,1.15485 -1.31715,11.17142 -4.87741,22.26404 -10.85902,32.62396 -4.20007,7.27437 -9.3092,13.69597 -15.1013,19.20381 -5.57257,1.15016 -12.77189,1.07511 -21.1908,-0.28707 -4.20757,-0.68109 -8.68252,-1.6774 -13.36104,-2.98049 1.51698,-1.46538 3.01519,-2.98798 4.49277,-4.56688 -0.0488,0.002 -0.0966,0.003 -0.14541,0.004 -0.0441,9.4e-4 -0.0882,9.4e-4 -0.13228,9.4e-4 h -7.67965 c -0.93439,0.91281 -1.87441,1.80124 -2.82006,2.66621 -8.3992,-2.7225 -17.32846,-6.35499 -26.462418,-10.85152 v 6.31934 c 7.323246,3.49646 14.525474,6.45631 21.448978,8.84951 -4.55469,3.68691 -9.196627,6.81656 -13.823462,9.3411 -14.574817,7.95171 -28.229503,9.56626 -38.791879,5.00594 l 6.563818,-11.36937 c -0.476014,-0.31334 -0.922664,-0.67734 -1.331976,-1.08637 -1.124835,-1.12483 -1.903119,-2.53205 -2.265994,-4.05466 l -7.936229,13.74663 c -9.682115,-6.734 -15.392034,-19.59408 -15.803411,-36.63265 -0.127306,-5.26955 0.261836,-10.85339 1.177371,-16.64174 3.420098,2.96548 7.080548,5.915 10.956865,8.8195 v -5.38776 c 0,-0.56477 0.05479,-1.1164 0.159391,-1.6502 -3.511754,-2.74407 -6.813271,-5.51347 -9.883816,-8.28193 1.149789,-5.214209 2.710392,-10.553846 4.68875,-15.944234 -1.439864,-0.382951 -2.767431,-1.140033 -3.839073,-2.211675 -0.36006,-0.360059 -0.684564,-0.749014 -0.971354,-1.161328 -1.889985,4.980606 -3.443739,9.939545 -4.66267,14.822584 -3.467662,-3.400772 -6.567665,-6.777624 -9.26117,-10.081017 z m 52.330329,84.75822 c 24.703398,5.89623 50.75003,0.35837 70.86384,-14.66413 -4.43273,0.0769 -9.27919,-0.32272 -14.41928,-1.15486 -5.44029,-0.87998 -11.26805,-2.25436 -17.36504,-4.09969 -12.701535,10.97723 -26.358944,17.96077 -39.07952,19.91868 z m 91.01798,-79.741304 c 5.14009,0.832134 9.82612,1.183938 13.96334,1.070422 1.1511,-23.030875 -7.09894,-45.922902 -23.21625,-62.951341 6.12139,15.739429 5.55475,37.201725 -1.81719,59.518669 3.85202,1.00419 7.55394,1.793356 11.0701,2.36225 z"
     fill="url(#paint0_linear_3_43)"
     id="path2"
     style="fill:url(#paint0_linear_3_43);stroke-width:1.06594" />
  <path
     d="M 50.775822,67.892447 H 39.402796 l -7.51e-4,0.665613 v 10.707788 l 11.373777,-2.82e-4 V 67.892447 H 62.148941 V 113.38502 H 50.775822 l -6.57e-4,11.37312 h 11.373776 v 22.74624 h 11.37312 V 113.38502 H 84.895087 V 102.0119 H 107.6417 v 34.11936 h 11.37312 v -11.37312 h 11.37219 l 9.3e-4,-11.37312 h 11.37312 V 102.0119 h -11.37312 v 11.37312 H 119.01482 V 33.773181 H 107.6417 v 11.37312 H 96.268585 V 56.519327 H 84.895087 v 11.37312 l 11.37256,1.87e-4 9.38e-4,-11.373307 h 11.253975 l 0.11821,2.81e-4 v 11.168323 l 9.3e-4,0.204516 V 90.638686 H 84.895181 l -9.4e-5,11.373214 H 73.522061 V 45.146301 H 62.148941 V 56.519327 H 50.775822 Z"
     fill="#170f1e"
     id="path4"
     style="stroke-width:1.06594" />
  <defs
     id="defs41">
    <linearGradient
       id="paint0_linear_3_43"
       x1="26.5"
       y1="26.5"
       x2="167"
       y2="167"
       gradientUnits="userSpaceOnUse">
      <stop
         stop-color="#FFC700"
         id="stop34" />
      <stop
         offset="0.505208"
         stop-color="#32DAFF"
         id="stop36" />
      <stop
         offset="1"
         stop-color="#5759FF"
         id="stop38" />
    </linearGradient>
  </defs>
</svg>
