<svg width="48.154mm" height="48.154mm" version="1.1" viewBox="0 0 48.154 48.154" xmlns="http://www.w3.org/2000/svg">
 <defs>
  <linearGradient id="linearGradient4503" x1="43.472" x2="34.492" y1="207.77" y2="234.34" gradientUnits="userSpaceOnUse">
   <stop stop-color="#898989" offset="0"/>
   <stop stop-color="#616161" offset="1"/>
  </linearGradient>
  <linearGradient id="linearGradient4505" x1="488.42" x2="507.21" y1="414.15" y2="450.66" gradientTransform="matrix(.50715 0 0 .50715 646.28 -171.11)" gradientUnits="userSpaceOnUse">
   <stop stop-color="#cbcbcb" offset="0"/>
   <stop stop-color="#9e9e9e" offset="1"/>
  </linearGradient>
 </defs>
 <g transform="matrix(.99978 0 0 .99978 -2009.7 396.38)" stroke-width="1.0002">
  <g stroke-width="1.0003">
   <rect id="bg" x="2010.2" y="-396.47" width="48.165" height="48.165" fill="#fff" style="paint-order:markers stroke fill"/>
   <path id="COOL" d="m2038.8-375.45h2.3466v1.0995h-3.6854v-6.7599h1.3388zm-2.1136-2.2855q0 0.74318-0.2341 1.3795-0.2342 0.63119-0.6669 1.0944-0.4275 0.46322-1.0333 0.72282-0.6057 0.25961-1.3438 0.25961t-1.3438-0.25961q-0.6058-0.2596-1.0385-0.72282-0.4326-0.46322-0.6719-1.0944-0.2341-0.63629-0.2341-1.3795 0-0.73809 0.2341-1.3693 0.2393-0.63629 0.6719-1.0944 0.4327-0.46322 1.0385-0.72282 0.6057-0.2647 1.3438-0.2647t1.3438 0.2647q0.6058 0.2596 1.0333 0.72282 0.4327 0.46321 0.6669 1.0944 0.2341 0.63119 0.2341 1.3693zm-1.3642 0q0-0.53957-0.1323-0.96715-0.1324-0.42758-0.3818-0.72791-0.2443-0.30033-0.6006-0.45813-0.3513-0.16289-0.7992-0.16289-0.448 0-0.8043 0.16289-0.3563 0.1578-0.6057 0.45813-0.2444 0.30033-0.3767 0.72791-0.1324 0.42758-0.1324 0.96715 0 0.54466 0.1324 0.97734 0.1323 0.42758 0.3767 0.72791 0.2494 0.29523 0.6057 0.45303t0.8043 0.1578q0.4479 0 0.7992-0.1578 0.3563-0.1578 0.6006-0.45303 0.2494-0.30033 0.3818-0.72791 0.1323-0.43268 0.1323-0.97734zm-5.6716 0q0 0.74318-0.2342 1.3795-0.2341 0.63119-0.6668 1.0944-0.4276 0.46322-1.0333 0.72282-0.6058 0.25961-1.3439 0.25961t-1.3438-0.25961q-0.6058-0.2596-1.0384-0.72282-0.4327-0.46322-0.672-1.0944-0.2341-0.63629-0.2341-1.3795 0-0.73809 0.2341-1.3693 0.2393-0.63629 0.672-1.0944 0.4326-0.46322 1.0384-0.72282 0.6057-0.2647 1.3438-0.2647t1.3439 0.2647q0.6057 0.2596 1.0333 0.72282 0.4327 0.46321 0.6668 1.0944 0.2342 0.63119 0.2342 1.3693zm-1.3642 0q0-0.53957-0.1324-0.96715-0.1323-0.42758-0.3818-0.72791-0.2443-0.30033-0.6006-0.45813-0.3512-0.16289-0.7992-0.16289-0.4479 0-0.8042 0.16289-0.3564 0.1578-0.6058 0.45813-0.2443 0.30033-0.3767 0.72791-0.1323 0.42758-0.1323 0.96715 0 0.54466 0.1323 0.97734 0.1324 0.42758 0.3767 0.72791 0.2494 0.29523 0.6058 0.45303 0.3563 0.1578 0.8042 0.1578 0.448 0 0.7992-0.1578 0.3563-0.1578 0.6006-0.45303 0.2495-0.30033 0.3818-0.72791 0.1324-0.43268 0.1324-0.97734zm-6.1807 1.746q0.1069 0 0.1832 0.0814l0.5345 0.57521q-0.3665 0.51412-0.9213 0.7839-0.5498 0.26979-1.3082 0.26979-0.6872 0-1.237-0.25452-0.5497-0.2596-0.9366-0.71773-0.3818-0.46321-0.5905-1.0944-0.2036-0.63628-0.2036-1.3896 0-0.75845 0.2189-1.3896 0.224-0.63629 0.6261-1.0944 0.4021-0.45812 0.9621-0.71263 0.5599-0.25452 1.2318-0.25452 0.6821 0 1.2064 0.24433 0.5243 0.23925 0.8755 0.63629l-0.4479 0.6261q-0.046 0.056-0.1069 0.10181-0.056 0.0458-0.1629 0.0458t-0.2087-0.0814q-0.097-0.0815-0.2443-0.17816-0.1426-0.0967-0.3614-0.17816-0.2189-0.0815-0.56-0.0815-0.3716 0-0.677 0.1578-0.3054 0.15271-0.5243 0.45304-0.2189 0.29523-0.341 0.72791-0.1171 0.42758-0.1171 0.97733 0 0.55484 0.1324 0.98752 0.1323 0.43267 0.3563 0.733 0.229 0.29524 0.5345 0.45303 0.3054 0.15271 0.6566 0.15271 0.2087 0 0.3767-0.0204 0.168-0.0255 0.3105-0.0814 0.1476-0.0611 0.2749-0.15271 0.1272-0.0916 0.2545-0.22906 0.051-0.0407 0.1018-0.0662 0.056-0.0305 0.112-0.0305z" fill="#504999" style="text-decoration-color:#000000;text-decoration-line:none"/>
   <path id="allabout" d="m2050-384.62q-0.3214 4e-3 -0.4956-0.17761-0.1745-0.18445-0.1789-0.50822l-0.018-1.3499-0.2241 3e-3q-0.05 6.8e-4 -0.085-0.0312-0.036-0.0344-0.036-0.0991v-0.25153l0.3751-0.0773 0.1231-0.65432q0.021-0.10241 0.1381-0.104l0.3288-4e-3 0.01 0.7621 0.6102-8e-3 0.01 0.44829-0.6102 8e-3 0.018 1.3075q0 0.10958 0.049 0.1712 0.048 0.0592 0.1353 0.058 0.047-6.4e-4 0.077-0.011 0.032-0.0129 0.055-0.0281 0.022-0.0152 0.04-0.0254 0.02-0.0128 0.042-0.0131 0.027-3.6e-4 0.045 0.0143 0.017 0.0123 0.038 0.0418l0.1959 0.30373q-0.128 0.10886-0.2942 0.16591-0.1636 0.057-0.3404 0.0594zm-2.9137-2.4713 0.021 1.5715q0 0.21418 0.1015 0.32992 0.099 0.11573 0.293 0.11309 0.142-2e-3 0.2681-0.0659 0.1261-0.0665 0.2367-0.17758l-0.024-1.7832 0.6326-9e-3 0.034 2.4731-0.3885 5e-3q-0.06 8.2e-4 -0.1025-0.026-0.04-0.0293-0.053-0.0865l-0.047-0.17871q-0.145 0.14894-0.323 0.24352-0.1757 0.0946-0.4197 0.0979-0.2017 3e-3 -0.3571-0.0649-0.1554-0.0676-0.2617-0.19074-0.1063-0.12311-0.1634-0.29421-0.054-0.17114-0.057-0.37785l-0.021-1.5715zm-2.2527-9e-3q0.2715-4e-3 0.4969 0.083 0.2254 0.0842 0.387 0.24882 0.1616 0.16221 0.2521 0.39763 0.09 0.23293 0.094 0.52431 0 0.29637-0.08 0.53415-0.084 0.23779-0.2411 0.40682-0.1571 0.16654-0.3801 0.25924-0.2229 0.0927-0.4944 0.0964-0.274 4e-3 -0.5018-0.0829-0.2254-0.0866-0.3895-0.24878-0.1617-0.1647-0.2521-0.40012-0.09-0.23542-0.094-0.53179 0-0.29138 0.08-0.52667 0.084-0.23779 0.2411-0.40434 0.1596-0.16906 0.3826-0.25927 0.2254-0.0928 0.4993-0.0965zm0.028 2.0671q0.2865-4e-3 0.4208-0.20499 0.1342-0.2036 0.1289-0.5946-0.01-0.39101-0.145-0.58839-0.1397-0.19988-0.4262-0.19598-0.2914 4e-3 -0.4281 0.20758-0.1343 0.2011-0.129 0.59212 0.01 0.391 0.1451 0.59087 0.1421 0.19735 0.4335 0.19339zm-3.7825 0.49727-0.049-3.5789 0.6327-9e-3 0.019 1.3972q0.1424-0.15139 0.3181-0.24345 0.1755-0.0946 0.3972-0.0976 0.2116-3e-3 0.3822 0.0795 0.1704 0.0824 0.2922 0.24014 0.1217 0.15529 0.1894 0.37855 0.068 0.22326 0.072 0.50221 0 0.30135-0.068 0.54893-0.072 0.24758-0.206 0.42626-0.1346 0.1762-0.325 0.27593-0.188 0.0973-0.4222 0.10045-0.1145 2e-3 -0.207-0.0196-0.09-0.0212-0.1677-0.06-0.078-0.0412-0.1433-0.0977-0.063-0.059-0.1238-0.13034l-0.025 0.15976q-0.011 0.0675-0.049 0.0954-0.037 0.0254-0.097 0.0262zm1.1058-2.0352q-0.1594 2e-3 -0.2755 0.076-0.1161 0.0713-0.2213 0.20726l0.015 1.0908q0.097 0.11577 0.2064 0.1616 0.1102 0.0458 0.2347 0.0441 0.1246-2e-3 0.2261-0.0479 0.1015-0.0487 0.1699-0.14927 0.071-0.10309 0.106-0.2605 0.038-0.15994 0.035-0.38409 0-0.19924-0.037-0.33827-0.034-0.14153-0.098-0.23033-0.061-0.0889-0.1538-0.12994-0.091-0.0411-0.2072-0.0395zm-1.9531 2.0467q-0.09 1e-3 -0.1373-0.023-0.047-0.0268-0.077-0.10607l-0.057-0.16363q-0.094 0.0835-0.1799 0.14692-0.086 0.0635-0.1804 0.10707-0.091 0.0435-0.1984 0.065-0.1043 0.0238-0.2338 0.0256-0.1594 2e-3 -0.2919-0.0383-0.1326-0.043-0.231-0.1264-0.096-0.0834-0.1497-0.2072-0.054-0.12632-0.056-0.29069 0-0.13698 0.066-0.27492 0.068-0.13792 0.2333-0.24977 0.1678-0.11437 0.4458-0.19039 0.2804-0.0785 0.6987-0.0942v-0.132q0-0.23908-0.1048-0.34981-0.1015-0.11071-0.288-0.10817-0.1395 2e-3 -0.2311 0.0355-0.09 0.0336-0.1584 0.0744-0.07 0.0383-0.1286 0.0714-0.06 0.0332-0.134 0.0342-0.065 8.9e-4 -0.1125-0.0309-0.046-0.0343-0.073-0.0812l-0.1172-0.19768q0.2114-0.20215 0.4691-0.3028 0.2577-0.10061 0.559-0.1047 0.2167-3e-3 0.3896 0.0669 0.1727 0.0674 0.294 0.19528 0.1214 0.1254 0.186 0.30138 0.064 0.17599 0.067 0.38768l0.021 1.5566zm-0.8721-0.38173q0.1694-2e-3 0.2906-0.0637 0.1236-0.064 0.244-0.19263l-0.01-0.39848q-0.2465 0.0134-0.4104 0.0479-0.1615 0.0321-0.2579 0.0832-0.096 0.0486-0.138 0.11397-0.039 0.0653-0.038 0.14001 0 0.14943 0.085 0.21058 0.086 0.0611 0.23 0.0592zm-2.5748-3.151 0.049 3.5789-0.6325 9e-3 -0.049-3.5789zm-1.2384 0.0168 0.049 3.5789-0.6325 9e-3 -0.049-3.5789zm-0.8834 3.5915-0.5031 7e-3q-0.087 1e-3 -0.14-0.038-0.053-0.0416-0.078-0.10355l-0.2181-0.64719-1.2178 0.0165-0.198 0.65034q-0.019 0.0551-0.076 0.10317-0.054 0.0455-0.1363 0.0467l-0.5106 7e-3 1.1605-3.3238 0.6675-9e-3zm-2.0169-1.2256 0.9215-0.0125-0.3505-1.0415q-0.031-0.0768-0.064-0.17847-0.033-0.10417-0.068-0.22576-0.028 0.12245-0.059 0.22748-0.031 0.10504-0.057 0.18263zm-3.6287-0.41652 1.2577-0.0171 0.01 0.52799-1.2576 0.0171zm-3.2565 1.3146 0.6401-9e-3 -0.025-1.853q0-0.11456 0.01-0.23922l-0.4259 0.37694q-0.042 0.0355-0.084 0.0435t-0.08 1e-3q-0.037-6e-3 -0.067-0.024-0.027-0.0195-0.043-0.0393l-0.1928-0.25644 0.982-0.87522 0.493-7e-3 0.039 2.8641 0.5654-8e-3 0.01 0.4483-1.8056 0.0245zm-2.9806 0.48887m1.1226-3.3606q0.2291-3e-3 0.4169 0.064 0.1902 0.0647 0.3239 0.18741 0.1361 0.1227 0.2107 0.29855 0.077 0.17331 0.08 0.38501 0 0.1818-0.047 0.33942-0.05 0.15511-0.1355 0.29826-0.085 0.14065-0.2005 0.27673-0.1152 0.13359-0.2429 0.26984l-0.6924 0.74424q0.1117-0.0364 0.2235-0.0553 0.1118-0.0214 0.2089-0.0227l0.7496-0.0102q0.095-1e-3 0.1528 0.0527 0.061 0.054 0.062 0.14363v0.35864l-2.2364 0.0304v-0.20174q-8e-4 -0.0573 0.02-0.12233 0.024-0.0676 0.083-0.12569l0.9479-1.0018q0.1203-0.12868 0.2109-0.2445 0.093-0.11585 0.1538-0.22877 0.063-0.11544 0.094-0.23045 0.03-0.11748 0.029-0.2445 0-0.22913-0.1192-0.34462-0.1162-0.11551-0.3254-0.11266-0.09 1e-3 -0.164 0.0296-0.075 0.0284-0.1335 0.0765-0.059 0.0481-0.1006 0.11346-0.041 0.0654-0.063 0.14035-0.039 0.11511-0.1076 0.15092-0.066 0.0358-0.1866 0.0174l-0.3195-0.0505q0.034-0.24208 0.1288-0.42273 0.094-0.18312 0.2375-0.30463 0.1452-0.12403 0.3337-0.18637 0.1884-0.0649 0.4051-0.0678zm-1.4073 1.708q0.01 0.43335-0.082 0.75339-0.086 0.32001-0.2444 0.53141-0.1566 0.21137-0.3744 0.31645-0.2153 0.10254-0.4693 0.10599-0.2541 3e-3 -0.4721-0.0932-0.2156-0.0992-0.3778-0.30623-0.1622-0.20705-0.2562-0.52461-0.094-0.31757-0.1002-0.75092-0.01-0.43335 0.08-0.75087 0.086-0.32001 0.2419-0.52889 0.1565-0.21136 0.3693-0.31638 0.2153-0.10506 0.4694-0.10851 0.254-3e-3 0.4721 0.0957 0.2205 0.0991 0.3827 0.30617 0.1647 0.20452 0.2588 0.52208 0.096 0.31505 0.1021 0.7484zm-0.6201 8e-3q0-0.35366-0.058-0.58211-0.05-0.23098-0.132-0.36438-0.082-0.13589-0.1868-0.18677-0.1029-0.0534-0.2125-0.0519-0.1095 1e-3 -0.2109 0.0577-0.099 0.0537-0.1768 0.19171-0.075 0.13553-0.1195 0.3678-0.044 0.22976-0.039 0.58342 0 0.35615 0.055 0.58713 0.05 0.22849 0.1294 0.36441 0.082 0.1334 0.182 0.18684 0.1028 0.0509 0.2124 0.0494 0.1096-1e-3 0.211-0.0552 0.1038-0.0562 0.1817-0.19178 0.078-0.13806 0.122-0.36783 0.047-0.2323 0.042-0.58844zm-4.2368 1.7145m1.1225-3.3606q0.2292-3e-3 0.417 0.064 0.1901 0.0647 0.3238 0.18741 0.1362 0.1227 0.2108 0.29854 0.077 0.17332 0.08 0.38502 0 0.1818-0.047 0.33941-0.05 0.15511-0.1353 0.29827-0.085 0.14065-0.2006 0.27673-0.1152 0.13358-0.2429 0.26983l-0.6924 0.74425q0.1116-0.0364 0.2235-0.0553 0.1118-0.0214 0.2089-0.0227l0.7496-0.0102q0.095-1e-3 0.1528 0.0527 0.061 0.054 0.062 0.14363v0.35864l-2.2365 0.0304v-0.20173q-7e-4 -0.0573 0.02-0.12234 0.024-0.0676 0.083-0.12568l0.9479-1.0018q0.1202-0.12867 0.2109-0.24449 0.093-0.11585 0.1538-0.22877 0.063-0.11545 0.094-0.23045 0.03-0.11749 0.029-0.2445 0-0.22913-0.1192-0.34463-0.1161-0.1155-0.3253-0.11266-0.09 1e-3 -0.164 0.0296-0.075 0.0284-0.1335 0.0765-0.059 0.0481-0.1006 0.11347-0.041 0.0654-0.063 0.14035-0.038 0.1151-0.1075 0.15091-0.067 0.0358-0.1866 0.0174l-0.3195-0.0505q0.034-0.24208 0.1287-0.42273 0.095-0.18312 0.2375-0.30464 0.1453-0.12402 0.3337-0.18637 0.1885-0.0649 0.4051-0.0678z" fill="#504999" fill-opacity=".99638" stop-color="#000000" style="text-decoration-color:#000000;text-decoration-line:none"/>
  </g>
  <path id="bezel-first" d="m2050.8-382.74h-32.934" fill="none" stop-color="#000000" stroke="#504999" stroke-linecap="round" stroke-width=".55939"/>
  <g id="co-logo-g" transform="matrix(.32847 0 0 .32847 1613.4 -1198.9)">
   <path d="m1306.4 2497.8 0.5681-0.5681 9.4503 9.4505-9.4503 9.4505-0.5681-0.5695 8.8823-8.8812z" fill="#fff" stroke-width=".30181"/>
   <g stroke-width=".38304">
    <path d="m1306.4 2497.8v17.764l8.8821-8.881z" fill="#c8c8c8"/>
    <path d="m1314.4 2489.8-7.4819 7.4835 9.4505 9.4508-9.4505 9.4508 7.4819 7.4821 16.934-16.933z" fill="#504999" style="paint-order:stroke fill markers"/>
    <path d="m1314.1 2509-6.2499 6.2446 9.2195-2.0351z" fill="#38257a"/>
   </g>
  </g>
  <path id="collaboraonline" d="m2049.6-367.04q0.2203 0 0.4054 0.0726 0.1851 0.0703 0.3186 0.20618 0.1335 0.13355 0.2085 0.33036 0.075 0.1968 0.075 0.44984 0 0.0679-0.01 0.11246-0.01 0.0422-0.024 0.0679-0.014 0.0258-0.042 0.0375-0.026 9e-3 -0.066 9e-3h-1.3917q0.014 0.16869 0.061 0.29286 0.047 0.12418 0.1242 0.20384 0.077 0.0797 0.1827 0.11949 0.1054 0.0375 0.2343 0.0375t0.2226-0.0305q0.096-0.0328 0.1663-0.068 0.073-0.0375 0.1289-0.0679 0.056-0.0328 0.1101-0.0328 0.066 0 0.1078 0.0539l0.171 0.22024q-0.096 0.11246-0.2132 0.18744-0.1171 0.0726-0.2437 0.11714-0.1241 0.0422-0.253 0.0609t-0.2484 0.0187q-0.2413 0-0.4498-0.0797t-0.3632-0.23663q-0.1546-0.15932-0.2436-0.39127-0.087-0.2343-0.087-0.54122 0-0.23664 0.077-0.44516 0.077-0.21087 0.2202-0.3655 0.1453-0.15698 0.3515-0.24835 0.2062-0.0914 0.4662-0.0914zm0.012 0.42407q-0.2272 0-0.3561 0.13355-0.1288 0.13121-0.1663 0.37253h0.984q0-0.10075-0.028-0.19212-0.026-0.0914-0.084-0.16166-0.056-0.0703-0.1429-0.11012-0.087-0.0422-0.2062-0.0422zm-3.5494 1.94v-2.3265h0.3655q0.056 0 0.094 0.0258 0.04 0.0258 0.052 0.0797l0.04 0.17104q0.07-0.0703 0.1453-0.12652 0.075-0.0586 0.1616-0.0984 0.087-0.0422 0.1828-0.0656 0.098-0.0234 0.2155-0.0234 0.1898 0 0.3351 0.0656 0.1452 0.0656 0.2436 0.18274 0.098 0.11715 0.1476 0.28116 0.052 0.16166 0.052 0.35378v1.4807h-0.5951v-1.4807q0-0.19915-0.091-0.30927t-0.2741-0.11012q-0.1359 0-0.2554 0.0586-0.1172 0.0586-0.2226 0.164v1.6776zm-1.2484 0zm0.6771-2.3265v2.3265h-0.5951v-2.3265zm0.073-0.66774q0 0.0773-0.03 0.14526-0.03 0.0656-0.082 0.11715-0.052 0.0492-0.1218 0.0797-0.07 0.0281-0.1476 0.0281-0.075 0-0.1429-0.0281-0.066-0.0305-0.1172-0.0797-0.049-0.0515-0.08-0.11715-0.028-0.0679-0.028-0.14526 0-0.0773 0.028-0.14526 0.03-0.0679 0.08-0.11715 0.052-0.0515 0.1172-0.0797 0.068-0.0305 0.1429-0.0305 0.077 0 0.1476 0.0305 0.07 0.0281 0.1218 0.0797 0.052 0.0492 0.082 0.11715 0.03 0.0679 0.03 0.14526zm-1.2417-0.37253v3.3668h-0.5951v-3.3668zm-3.1625 3.3668v-2.3265h0.3655q0.056 0 0.094 0.0258 0.04 0.0258 0.052 0.0797l0.04 0.17104q0.07-0.0703 0.1452-0.12652 0.075-0.0586 0.1617-0.0984 0.087-0.0422 0.1828-0.0656 0.098-0.0234 0.2155-0.0234 0.1898 0 0.335 0.0656 0.1453 0.0656 0.2437 0.18274 0.098 0.11715 0.1476 0.28116 0.052 0.16166 0.052 0.35378v1.4807h-0.5951v-1.4807q0-0.19915-0.091-0.30927t-0.2741-0.11012q-0.1359 0-0.2554 0.0586-0.1172 0.0586-0.2226 0.164v1.6776zm-0.3909-1.5581q0 0.34207-0.1077 0.63494-0.1078 0.29053-0.307 0.50373-0.1968 0.21321-0.4756 0.3327t-0.6185 0.11949-0.6186-0.11949q-0.2788-0.11949-0.4779-0.3327-0.1992-0.2132-0.3093-0.50373-0.1078-0.29287-0.1078-0.63494 0-0.33972 0.1078-0.63025 0.1101-0.29286 0.3093-0.50373 0.1991-0.21321 0.4779-0.3327 0.2789-0.12183 0.6186-0.12183t0.6185 0.12183q0.2788 0.11949 0.4756 0.3327 0.1992 0.21321 0.307 0.50373 0.1077 0.29053 0.1077 0.63025zm-0.6279 0q0-0.24835-0.061-0.44515-0.061-0.19681-0.1757-0.33504-0.1125-0.13824-0.2765-0.21087-0.1616-0.075-0.3678-0.075t-0.3702 0.075q-0.164 0.0726-0.2788 0.21087-0.1125 0.13823-0.1734 0.33504-0.061 0.1968-0.061 0.44515 0 0.2507 0.061 0.44985 0.061 0.19681 0.1734 0.33504 0.1148 0.13589 0.2788 0.20852 0.164 0.0726 0.3702 0.0726t0.3678-0.0726q0.164-0.0726 0.2765-0.20852 0.1148-0.13823 0.1757-0.33504 0.061-0.19915 0.061-0.44985zm-4.0923 1.5581q-0.084 0-0.1288-0.0234-0.044-0.0258-0.07-0.10075l-0.052-0.15463q-0.089 0.0773-0.171 0.13589-0.082 0.0586-0.171 0.0984-0.087 0.0398-0.1875 0.0586-0.098 0.0211-0.2202 0.0211-0.1499 0-0.2741-0.0398-0.1242-0.0422-0.2156-0.12183-0.089-0.0797-0.1382-0.19681-0.049-0.11949-0.049-0.27412 0-0.12886 0.066-0.25772 0.066-0.12887 0.2226-0.23196 0.1593-0.10543 0.4217-0.17337 0.2648-0.0703 0.6584-0.0797v-0.12418q0-0.22492-0.094-0.33035-0.094-0.10544-0.2695-0.10544-0.1312 0-0.2179 0.0305-0.084 0.0305-0.1499 0.0679-0.066 0.0351-0.1219 0.0656-0.056 0.0305-0.1265 0.0305-0.061 0-0.1054-0.0305-0.042-0.0328-0.068-0.0773l-0.1077-0.18743q0.2015-0.18744 0.4451-0.27881 0.2437-0.0914 0.5272-0.0914 0.2038 0 0.3655 0.0679 0.1617 0.0656 0.2741 0.18743 0.1125 0.11949 0.171 0.28584 0.059 0.16635 0.059 0.3655v1.4643zm-0.8153-0.37019q0.1593 0 0.2741-0.0562 0.1172-0.0586 0.232-0.17806v-0.37487q-0.232 9e-3 -0.3866 0.0398-0.1523 0.0281-0.2437 0.075-0.091 0.0445-0.1312 0.10544-0.038 0.0609-0.038 0.1312 0 0.14058 0.077 0.19915 0.08 0.0586 0.2156 0.0586zm-2.366 0.37019v-2.3265h0.3491q0.091 0 0.1266 0.0328 0.037 0.0328 0.049 0.11481l0.03 0.23663q0.1055-0.19915 0.246-0.31395 0.1406-0.11481 0.3257-0.11481 0.1523 0 0.2507 0.0726l-0.044 0.44515q0 0.0422-0.028 0.0609-0.024 0.0164-0.063 0.0164-0.035 0-0.1007-9e-3 -0.066-0.0117-0.1219-0.0117-0.082 0-0.1476 0.0234-0.063 0.0234-0.1148 0.0703-0.049 0.0445-0.089 0.11012-0.04 0.0656-0.073 0.14995v1.4432zm-1.5342-2.364q0.2554 0 0.4663 0.0844 0.2108 0.082 0.3608 0.23898 0.1499 0.15463 0.2319 0.37721 0.082 0.22024 0.082 0.49436 0 0.27881-0.082 0.50139t-0.2319 0.37956q-0.15 0.15463-0.3608 0.23898-0.2109 0.0843-0.4663 0.0843-0.2577 0-0.4709-0.0843-0.2109-0.0844-0.3632-0.23898-0.1499-0.15698-0.2319-0.37956t-0.082-0.50139q0-0.27412 0.082-0.49436 0.082-0.22258 0.2319-0.37721 0.1523-0.15698 0.3632-0.23898 0.2132-0.0844 0.4709-0.0844zm0 1.9446q0.2695 0 0.3983-0.18743 0.1289-0.18978 0.1289-0.55762t-0.1289-0.55528q-0.1288-0.18978-0.3983-0.18978-0.2741 0-0.4053 0.18978-0.1289 0.18744-0.1289 0.55528t0.1289 0.55762q0.1312 0.18743 0.4053 0.18743zm-3.5678 0.41939v-3.3668h0.5951v1.3144q0.1358-0.14057 0.3022-0.22492 0.1663-0.0867 0.3749-0.0867 0.1991 0 0.3584 0.0797 0.1594 0.0797 0.2718 0.22961 0.1125 0.14761 0.1734 0.35847 0.061 0.21087 0.061 0.47327 0 0.2835-0.07 0.51545t-0.1991 0.3983q-0.1289 0.16401-0.3093 0.25538-0.1781 0.089-0.3983 0.089-0.1078 0-0.1945-0.0211-0.084-0.0211-0.1569-0.0586-0.073-0.0398-0.1336-0.0937-0.059-0.0562-0.1148-0.12418l-0.026 0.14995q-0.012 0.0633-0.047 0.089-0.035 0.0234-0.091 0.0234zm1.066-1.9001q-0.15 0-0.2601 0.0679-0.1101 0.0656-0.2108 0.19212v1.0262q0.089 0.11012 0.1921 0.15463 0.1031 0.0445 0.2202 0.0445 0.1172 0 0.2132-0.0422 0.096-0.0445 0.1617-0.13824 0.068-0.0961 0.1031-0.24366 0.037-0.14995 0.037-0.36082 0-0.18743-0.03-0.31864-0.031-0.13354-0.089-0.21789-0.056-0.0843-0.1429-0.12418-0.084-0.0398-0.1945-0.0398zm-1.8669 1.9001q-0.084 0-0.1289-0.0234-0.044-0.0258-0.07-0.10075l-0.052-0.15463q-0.089 0.0773-0.171 0.13589-0.082 0.0586-0.1711 0.0984-0.087 0.0398-0.1874 0.0586-0.098 0.0211-0.2203 0.0211-0.1499 0-0.2741-0.0398-0.1242-0.0422-0.2155-0.12183-0.089-0.0797-0.1383-0.19681-0.049-0.11949-0.049-0.27412 0-0.12886 0.066-0.25772 0.066-0.12887 0.2226-0.23196 0.1593-0.10543 0.4217-0.17337 0.2648-0.0703 0.6584-0.0797v-0.12418q0-0.22492-0.094-0.33035-0.094-0.10544-0.2694-0.10544-0.1312 0-0.2179 0.0305-0.084 0.0305-0.15 0.0679-0.066 0.0351-0.1218 0.0656-0.056 0.0305-0.1265 0.0305-0.061 0-0.1055-0.0305-0.042-0.0328-0.068-0.0773l-0.1078-0.18743q0.2015-0.18744 0.4452-0.27881 0.2436-0.0914 0.5271-0.0914 0.2039 0 0.3655 0.0679 0.1617 0.0656 0.2742 0.18743 0.1124 0.11949 0.171 0.28584 0.059 0.16635 0.059 0.3655v1.4643zm-0.8154-0.37019q0.1594 0 0.2742-0.0562 0.1171-0.0586 0.2319-0.17806v-0.37487q-0.2319 9e-3 -0.3866 0.0398-0.1523 0.0281-0.2436 0.075-0.091 0.0445-0.1312 0.10544-0.038 0.0609-0.038 0.1312 0 0.14058 0.077 0.19915 0.08 0.0586 0.2155 0.0586zm-1.3139-2.9966v3.3668h-0.5951v-3.3668zm-1.1687 0v3.3668h-0.5952v-3.3668zm-2.1645 1.0028q0.2554 0 0.4662 0.0844 0.2109 0.082 0.3609 0.23898 0.1499 0.15463 0.2319 0.37721 0.082 0.22024 0.082 0.49436 0 0.27881-0.082 0.50139t-0.2319 0.37956q-0.15 0.15463-0.3609 0.23898-0.2108 0.0843-0.4662 0.0843-0.2577 0-0.4709-0.0843-0.2109-0.0844-0.3632-0.23898-0.1499-0.15698-0.2319-0.37956t-0.082-0.50139q0-0.27412 0.082-0.49436 0.082-0.22258 0.2319-0.37721 0.1523-0.15698 0.3632-0.23898 0.2132-0.0844 0.4709-0.0844zm0 1.9446q0.2694 0 0.3983-0.18743 0.1289-0.18978 0.1289-0.55762t-0.1289-0.55528q-0.1289-0.18978-0.3983-0.18978-0.2741 0-0.4053 0.18978-0.1289 0.18744-0.1289 0.55528t0.1289 0.55762q0.1312 0.18743 0.4053 0.18743zm-1.6631-0.33504q0.049 0 0.084 0.0375l0.246 0.26475q-0.1687 0.23664-0.4241 0.36081-0.253 0.12418-0.6021 0.12418-0.3163 0-0.5694-0.11715-0.253-0.11949-0.4311-0.33035-0.1757-0.21321-0.2717-0.50373-0.094-0.29287-0.094-0.63963 0-0.34909 0.1008-0.63962 0.1031-0.29287 0.2882-0.50373t0.4428-0.32801 0.567-0.11715q0.3139 0 0.5552 0.11246 0.2414 0.11012 0.403 0.29287l-0.2061 0.28818q-0.021 0.0258-0.049 0.0469-0.026 0.0211-0.075 0.0211t-0.096-0.0375q-0.044-0.0375-0.1124-0.082-0.066-0.0445-0.1664-0.082-0.1007-0.0375-0.2577-0.0375-0.171 0-0.3116 0.0726-0.1406 0.0703-0.2413 0.20852-0.1008 0.13589-0.157 0.33504-0.054 0.19681-0.054 0.44984 0 0.25538 0.061 0.45453t0.164 0.33739q0.1054 0.13589 0.246 0.20852 0.1406 0.0703 0.3023 0.0703 0.096 0 0.1733-9e-3 0.077-0.0117 0.143-0.0375 0.068-0.0281 0.1265-0.0703 0.059-0.0422 0.1171-0.10543 0.024-0.0188 0.047-0.0305 0.026-0.0141 0.052-0.0141z" fill="#504999" stroke-dashoffset="31.002" stroke-linecap="round" stroke-width=".91912" style="text-decoration-color:#000000;text-decoration-line:none">
   <title>collaboraonline</title>
  </path>
  <path id="bezel-second" d="m2050.6-370.65h-3.4956m-3.8967 0h-6.7958m-12.943 0h-5.7468" fill="none" stop-color="#000000" stroke="#504999" stroke-linecap="round" stroke-width=".47259"/>
  <g id="Figure-g" transform="matrix(.36134 0 0 .36134 1709.8 -373.54)" stroke-width="1.0002">
   <g stroke-linecap="round">
    <path d="m904.77 37.645c-2.5651-0.58634-4.9827-1.4207-7.3837-2.2382-0.78007-0.21658-1.554 0.40246-1.6906 1.3403l-2.4328 12.5 8.9135 1.5335z" fill="#7e7e7e" stop-color="#000000" stroke-width="1.4444"/>
    <g transform="matrix(.50715 0 0 .50715 860.49 -61.77)" stroke-width="2.8485">
     <path d="m63.893 209.4-4.6772-1.7372-19.03-0.76266c-1.4215 0.13123-3.0078-0.0489-3.3409 2.1382l-4.0185 23.003c-0.58503 3.4927 7.2201 3.0903 9.1414 3.3017z" fill="url(#linearGradient4503)" stop-color="#000000"/>
     <path d="m66.607 230.64-23.733-1.119c-0.33814-0.0128-0.35612-0.23908-0.32091-0.5008 0 0 3.6153-17.873 3.7418-18.425 0.57111-2.4953 1.4949-3.0724 2.94-3.0736l14.833 1.7372c0.89927 0.44589 1.7373 2.1382 1.7373 2.1382z" fill="#575757" opacity=".77741" stop-color="#000000"/>
    </g>
    <path d="m901.24 58.927c0-0.09585 0.0479-1.4377 0.0479-1.4377l-23.386-0.38338 0.0479 1.2939 12.766 0.57507 0.43609-0.69487-0.10063 0.69487z" fill="#6d6d6d" stop-color="#000000" stroke-width="1.4444"/>
    <path d="m879.45 43.57 3.7655 0.91412 8.118 0.369 0.83864-2.1469-7.4471 0.63736-3.6313-0.17611c-0.67882-0.02191-1.4289 0.04427-1.6437 0.40255z" fill="#898989" stop-color="#000000" stroke-width=".2143"/>
   </g>
   <path d="m883.57 42.479a0.98389 0.98389 0 0 1 1.4855 0.26348l2.2299-0.28775 0.50537 1.3124-3.1547 0.36214a0.98922 0.98922 0 0 1-1.066-1.6503z" fill="#9f616a" stroke-width=".17858"/>
   <circle transform="matrix(-.97816 -.20787 -.20787 .97816 0 0)" cx="-884.43" cy="-156.86" r="1.0722" fill="#6c63ff" stroke-width=".17858"/>
   <g transform="matrix(.55629 -.2817 .2817 .55629 774.15 -38.891)">
    <path d="m122.35 190.94-1.929 1.8508 4.0158 1.3673 0.27557-3.0291z" fill="#9f616a" stop-color="#000000" stroke-linecap="round" stroke-width="2.3164"/>
    <g stroke-width=".28643">
     <circle transform="matrix(-.97816 -.20787 -.20787 .97816 0 0)" cx="-160.64" cy="157.84" r="3.7828" fill="#9f616a"/>
     <path d="m125.26 186.19s0.31532-2.2824-1.8827-1.7915-1.5304-2.0077-0.83018-2.3255c0.70023-0.31779 0.70454-0.43234 2.8551 0.33687 2.1506 0.76921 6.3415 2.1888 4.0056 6.3452-2.336 4.1564-4.1366 2.5625-4.1366 2.5625s2.7414-3.59 1.4597-3.0647l-1.2816 0.52534-0.56413-0.25066z" fill="#2f2e41"/>
     <path d="m127.63 188.24 1.6215-3.9217a0.57072 0.57072 0 0 0-0.3094-0.74555l-0.84963-0.35131-1.8396 4.4492z" fill="#504999"/>
     <circle transform="matrix(-.97816 -.20787 -.20787 .97816 0 0)" cx="-163.1" cy="158.24" r="1.0317" fill="#f2f2f2"/>
    </g>
   </g>
   <circle transform="matrix(-.97816 -.20787 -.20787 .97816 0 0)" cx="-884.43" cy="-156.86" r=".21444" fill="#504999" stroke-width=".17858"/>
   <polygon transform="matrix(-.068072 -.033697 -.033697 .068072 925.39 31.409)" points="373.33 526.26 351.89 526.26 351.89 582.29 366.42 582.29" fill="#9f616a" stroke-width="6.6529"/>
   <polygon transform="matrix(-.068072 -.033697 -.033697 .068072 923.35 30.799)" points="373.33 526.26 351.89 526.26 351.89 582.29 366.42 582.29" fill="#9f616a" stroke-width="6.6529"/>
   <path d="m886.57 51.068 3.3837-0.3843-0.89374 3.6862-2.835 0.09098-6.5174-0.62299 0.29711-3.1533z" fill="#7e7e7e" stop-color="#000000" stroke-linecap="round" stroke-width="1.4444"/>
   <g fill="#2e3436" stroke-width=".17858">
    <path d="m899.43 46.254s-1.7073 5.0926-4.193 5.0074c-2.4858-0.08513-8.3315-0.35434-8.3315-0.35434l-4.4387 7.6607-2.0468-0.62965s2.9019-12.188 3.7293-12.725 9.8875 2.13e-4 9.8875 2.13e-4z"/>
    <path d="m892.91 44.98-1.319-0.22585s-10.22-1.084-10.884 0.6013c-1.0013 2.5444-2.7689 12.15-2.7689 12.15l2.3108 0.31278 3.7435-8.5863 4.7737-1.0847 4.6201-1.3766z"/>
    <path d="m882.39 58.733-2.1694-0.12354-8e-5 -7e-6a1.3848 1.3848 0 0 0-1.4612 1.3038l-3e-3 0.04494 3.552 0.2023z"/>
    <path d="m880 58.188-2.1694-0.12354h-7e-5a1.3848 1.3848 0 0 0-1.4612 1.3038l-3e-3 0.04487 3.552 0.2023z"/>
   </g>
   <path d="m894.7 34.622 0.81735-1.0286 2.5658 0.02277c1.6084 0.90883 4.2701 2.3173 3.9608 4.1386l-1.184 6.9738s0.15341 2.4237-1.8822 2.5078c-1.4363 0.05934-7.6265-2.3404-7.6265-2.3404l1.5249-8.3249s-0.0576-1.5709 1.8239-1.9492z" fill="#edd400" stroke-width=".17858"/>
   <g transform="matrix(.50715 0 0 .50715 638.12 -172.44)" stroke-width="1.3309">
    <path d="m525.46 454.63s-6.3528-21.375 17.806-33.544z" fill="#247677" stroke-width=".35214"/>
    <path d="m525.65 454.39s1.4598-21.493 29.596-22.815z" fill="#247677" stroke-width=".35214"/>
    <path transform="matrix(.26458 0 0 .26458 16.09 2.6192)" d="m2021 1622.8c-64.165 8.7101-85.168 47.885-91.945 69.781 19.26-22.472 65.099-56.778 91.945-69.781z" fill="#1c5c5d" stroke-width="1.3309"/>
    <path transform="matrix(.26458 0 0 .26458 16.09 2.6192)" d="m1992 1582.3c-70.665 33.21-74.668 99.385-66.445 124.78 8.7598-80.972 47.099-109.28 66.445-124.78z" fill="#1c5c5d" fill-opacity=".59302"/>
   </g>
   <path d="m904.29 37.542 2.5139 0.55487c0.39502 0.08126 0.46281 0.30578 0.43413 0.43436l-5.1057 18.676c-0.11595 0.44583-0.37104 0.61337-0.67772 0.67772l-12.036-0.56751c-0.17148-0.0067-0.1806-0.12124-0.16274-0.25398 0 0 1.8335-9.0641 1.8976-9.3443 0.28963-1.2655 0.75813-1.5582 1.491-1.5588l7.5227 0.88104c0.45605 0.22613 0.80654 0.54024 0.88103 1.0844l2.5076-9.827c0.0894-0.40543 0.28606-0.88968 0.73448-0.75662z" fill="url(#linearGradient4505)" stop-color="#000000" stroke-linecap="round" stroke-width="1.4444"/>
   <path d="m893.31 35.348 1.0844-0.20332-2.5754 8.641c-0.75954 0.46392-4.6209 0.40195-5.3771 0.19893-0.69114-0.3383-1.0687-1.0726-0.79018-1.351 0.20332-0.20332 5.2862-1.3216 5.2862-1.3216z" fill="#edd400" stop-color="#000000" stroke-width="1.0003"/>
   <path d="m895.3 46.453s-1.7697-0.28372-2.6836-0.26836c-0.53303 9e-3 -1.1165-1e-3 -1.5766 0.26836-0.26076 0.15259-0.53551 0.40435-0.57028 0.70446-0.34829 3.006-1.4089 7.5813-1.4089 7.5813l-4.3861 0.0094c-6e-3 -0.0036-1.393 2.4235-1.4183 2.4457 0.0364 2e-3 8.052 0.27885 7.9849 0.21176-0.0671-0.06708 0.69093-6.7759 2.0127-9.8121 0.16967-0.38972 0.36811-0.83048 0.738-1.0399 0.38061-0.2155 1.3083-0.10064 1.3083-0.10064z" fill="#606060" stop-color="#000000" stroke-linecap="round" stroke-width=".2143"/>
   <path d="m891.24 57.431-0.27314-0.05729c-0.0178-0.22761 0.70979-7.423 2.4211-10.542l0.15286 0.01968c-1.353 3.6551-1.9553 7.1759-2.3009 10.579z" fill="#898989" stop-color="#000000" stroke-linecap="round" stroke-width=".2143"/>
   <path d="m891.78 46.301a1.0436 1.0436 0 0 1 1.5888 0.19076l2.3444-0.43728 0.61321 1.3599-3.3194 0.57101a1.0493 1.0493 0 0 1-1.227-1.6844z" fill="#9f616a" stroke-width=".17858"/>
   <path d="m900.7 36.176 0.84624-0.095s0.90307 0.40933 1.1933 1.803c0.24315 1.1674-0.79987 6.3966-1.145 8.0639 0.0375 0.29163-0.24852 0.85301-0.59459 0.8266l-6.535 1.3683c-1.018-0.51911-1.3066-1.2626-0.66383-2.2928l4.2907-1.5755s5.6586-6.8783 2.6081-8.0985z" fill="#edd400" stroke-width="1.0003"/>
   <g stroke-linecap="round">
    <path d="m900.79 49.817c-0.80509 2.6613-1.8345 8.1321-2.4153 7.9838 0 0 0.94444 0.18786 0.87218 0-0.16773-0.43609 1.5431-7.9838 1.5431-7.9838z" fill="#6d6d6d" stop-color="#000000" stroke-width=".2143"/>
    <path d="m889.79 51.059-0.60382 3.6229h-0.60381z" fill="#6d6d6d" stop-color="#000000" stroke-width=".2143"/>
    <g fill="#b0b0b0" stroke-width=".21432">
     <path d="m889.72 51.059-1.0399 3.3546-0.46964 0.06709z" stop-color="#000000"/>
     <path d="m900.75 49.841c0 0.07465-1.9057 8.0142-2.1823 7.9226-0.045-0.01491-0.33207 0.09487-0.28464-0.02369 0.0474-0.11861 2.4669-7.8989 2.4669-7.8989z" stop-color="#000000"/>
     <path d="m901.2 57.93 0.28702-0.06134c0.34785-0.04541 0.4697-0.29064 0.61986-0.57767l0.27914-1.1163c1.6914-5.8449 3.2328-11.721 4.825-17.606 0.10407-0.30596-0.14975-0.34335-0.26236-0.43535l-5.2269 19.559z" stop-color="#000000"/>
    </g>
    <path d="m889.18 54.648-0.10063 0.369-4.5286-0.13418 0.13418-0.13418z" fill="#898989" stop-color="#000000" stroke-width=".2143"/>
   </g>
  </g>
  <g id="Days-g" transform="matrix(.15863 0 0 .15908 1839.6 -774.88)" stroke-width="1.2456">
   <title>Days-g</title>
   <path d="m1236.9 2529.7c-0.7626 1.162-1.4344 2.2151-2.0153 3.1592-0.5084 0.8351-0.9805 1.6158-1.4162 2.342-0.3994 0.7263-0.5991 1.1802-0.5991 1.3617 0 0.7989 0.036 1.5796 0.1089 2.3421 0.1089 0.7263 0.2723 1.3799 0.4902 1.9608 0.2179 0.581 0.4902 1.0531 0.817 1.4162 0.3268 0.3268 0.7444 0.4902 1.2528 0.4902 0.8351 0 1.5432-0.4539 2.1242-1.3617 0.6173-0.9078 0.9259-1.979 0.9259-3.2136 0-0.6899-0.091-1.4161-0.2723-2.1786-0.1815-0.7626-0.3812-1.507-0.5991-2.2332-0.1816-0.7625-0.3632-1.4888-0.5447-2.1787-0.1815-0.7262-0.2723-1.3617-0.2723-1.9064zm-0.054 15.469c-1.3435 0-2.6144-0.2723-3.8127-0.817-1.1983-0.5084-2.2513-1.162-3.1591-1.9609-0.8715-0.7989-1.5614-1.6703-2.0698-2.6144-0.5447-0.9441-0.817-1.8156-0.817-2.6144 0-0.7989 0.2723-1.4706 0.817-2.0153s1.1438-0.9986 1.7974-1.3617c0.7626-0.3994 1.6341-0.7262 2.6145-0.9804 0.2179-0.3631 0.5083-0.817 0.8714-1.3617 0.2905-0.4721 0.6718-1.0531 1.1439-1.743 0.472-0.7262 1.0167-1.5795 1.634-2.5599 1.2709-1.9245 2.3602-3.2499 3.268-3.9761 0.9078-0.7625 1.7067-1.1438 2.3966-1.1438 0.2905 0 0.581 0.091 0.8715 0.2723 0.3268 0.1453 0.6173 0.3268 0.8714 0.5447 0.2905 0.2179 0.5084 0.4357 0.6536 0.6536 0.1816 0.2179 0.2724 0.3994 0.2724 0.5446 0 0.1816-0.073 0.4176-0.2179 0.7081-0.1453 0.2542-0.3087 0.5447-0.4902 0.8715-0.1453 0.2905-0.2905 0.6173-0.4357 0.9804-0.1089 0.3268-0.1634 0.6718-0.1634 1.0349 0 1.0893 0.1089 2.0334 0.3268 2.8323s0.4539 1.5614 0.708 2.2876c0.2905 0.6899 0.5447 1.3799 0.7626 2.0698 0.2179 0.6536 0.3268 1.398 0.3268 2.2331 0 0.7263-0.073 1.3436-0.2179 1.8519-0.1089 0.4721-0.2542 0.8897-0.4357 1.2528-0.1816 0.3994-0.3813 0.7443-0.5992 1.0348-0.9015 2.2188-3.8082 4.0622-6.9173 3.9762zm-15.722-2.3421q2.6144-1.5251 4.3029-3.1047 1.6885-1.634 2.8867-3.268 0.109-0.1634 0.3269-0.3813 0.1634-0.1089 0.3812-0.2178 0.2179-0.1634 0.4902-0.1634 0.4902 0 0.817 0.3268t0.3268 0.7625q0 0.2179-0.1089 0.4357-0.1089 0.1634-0.2179 0.3813-0.1634 0.2179-0.2723 0.4902-1.4161 1.9064-3.7038 3.9217-2.2876 1.9608-6.0458 3.9216-0.7081 2.451-1.6341 4.9021-0.8714 2.5055-2.1787 4.4663-1.3072 1.9608-3.1591 3.2136-1.7974 1.2527-4.2484 1.2527-1.2528 0-2.3966-0.4357-1.0893-0.3813-1.9608-1.0894-0.817-0.6536-1.3072-1.634-0.4902-0.9259-0.4902-2.0153 0-1.3617 0.817-2.56 0.8715-1.1438 2.3966-2.1787 1.525-1.0348 3.5948-2.0152 2.1242-0.926 4.5753-1.9064 0.4357-1.5251 0.708-2.8868 0.2724-1.3616 0.4902-2.3421-0.6536 0.7626-1.5251 1.5251-0.817 0.7081-1.7974 1.3072-0.9804 0.5447-2.0697 0.8715-1.0349 0.3813-2.0698 0.3813-0.9259 0-1.9608-0.4357-0.9804-0.3813-1.7974-1.0894t-1.3617-1.6885-0.5447-2.0697q0-1.4707 0.4902-3.6493 0.4902-2.1787 1.1438-4.4119 0.6536-2.2876 1.3617-4.3029 0.7626-2.0153 1.2528-3.1591 0.2178-0.4358 0.5991-0.7081 0.3813-0.3268 0.8715-0.3268 0.5991 0 1.3617 0.3813 0.7625 0.3812 1.4161 0.8715 0.6536 0.4902 1.0894 1.0348 0.4357 0.4902 0.4357 0.817 0 1.0894-0.5447 2.6689-0.5447 1.5796-1.2527 3.4315-0.6536 1.8519-1.1983 3.8127t-0.5447 3.7582q0 0.6536 0.3268 1.1438 0.3268 0.4903 0.926 0.4903 0.6536 0 1.3617-0.3269 0.708-0.3812 1.3616-0.9259 0.6536-0.5991 1.1983-1.2527 0.5447-0.7081 0.8715-1.3617 0.7625-1.4162 1.4161-3.1591 0.6536-1.7975 1.1983-3.5949 0.5992-1.8519 1.0349-3.5948 0.4902-1.743 0.9259-3.1591 0.109-0.4902 0.5447-0.7626 0.4358-0.2723 0.9804-0.2723 0.5992 0 1.3072 0.3813 0.7626 0.3812 1.4162 0.8715 0.6536 0.4902 1.0893 1.0348 0.4358 0.4902 0.4358 0.817 0 0.5992-0.3268 2.1243-0.3268 1.525-0.817 3.5948-0.4902 2.0153-1.1438 4.3029-0.5992 2.2876-1.1983 4.3029zm-13.399 14.052q0.8715 0 1.6885-0.6536 0.817-0.5991 1.5251-1.634t1.3072-2.451q0.5991-1.3617 1.0893-2.8323-1.4706 0.817-2.6689 1.6885-1.1982 0.9259-2.0697 1.7974t-1.3617 1.634q-0.4902 0.817-0.4902 1.3617 0 1.0893 0.9804 1.0893zm-2.976-18.791q-1.1983 1.9064-2.6689 3.377-1.2528 1.2527-2.9957 2.2876-1.6885 1.0349-3.7038 1.0349-2.2876 0-3.8672-1.1438-1.5795-1.1983-1.8519-3.4859-1.0893 1.3617-2.342 2.3421-1.0894 0.8714-2.4511 1.5795t-2.9412 0.7081q-1.0894 0-2.1242-0.4357-0.9804-0.3813-1.743-1.1439-0.7081-0.7625-1.1438-1.7974t-0.4357-2.2876q0-2.9412 1.0893-5.828 1.1438-2.8868 2.9412-5.1744 1.7975-2.3421 4.0306-3.7582 2.2332-1.4162 4.4663-1.4162 1.6341 0 2.7779 0.4357 1.1438 0.3813 1.8519 0.8715 0.817 0.5992 1.3072 1.2528 0.5991 0 1.2527 0.1634 0.7081 0.1089 1.2528 0.4357 0.5991 0.2723 0.9804 0.7625 0.3813 0.4903 0.3813 1.1983 0 0.5992-0.4903 1.9609-0.4902 1.3616-1.0893 3.0501-0.5991 1.634-1.0893 3.4315-0.4903 1.7429-0.4903 3.1046 0 0.6536 0.3813 1.0893 0.4358 0.4358 1.1438 0.4358 1.0894 0 2.1243-0.7081 1.0893-0.7081 1.9063-1.634 0.9804-0.9804 1.7974-2.3421 0.054-0.1634 0.2724-0.3813 0.1089-0.1089 0.3268-0.2178 0.2178-0.1634 0.4902-0.1634 0.4357 0 0.7625 0.3268 0.3813 0.3268 0.3813 0.7625 0 0.2179-0.1089 0.4357-0.054 0.1634-0.1634 0.3813-0.109 0.2179-0.2179 0.4902zm-12.636-9.6407q0-1.1983-0.5992-1.743-0.5446-0.5991-1.3616-0.5991-1.1983 0-2.4511 1.2528-1.2527 1.2527-2.2876 3.1046-0.9804 1.7974-1.634 3.9216-0.6536 2.1243-0.6536 3.8127 0 2.4511 1.5795 2.4511 0.9804 0 2.2332-1.3072 1.3072-1.3073 2.451-3.2136 1.1438-1.9064 1.9064-3.9761 0.817-2.1242 0.817-3.7038zm-28.902-1.5796q-0.2179-0.2178-0.4358-0.4357-0.2178-0.1634-0.4902-0.2723-0.2723-0.1634-0.5991-0.1634-1.3072 0-2.6689 1.2527-1.3072 1.2528-2.3966 3.1047-1.0349 1.7974-1.6885 3.8671-0.6536 2.0698-0.6536 3.7583 0 1.4706 0.5447 2.2876t1.4706 0.817q0.8715 0 1.9064-0.6536 1.0348-0.7081 1.9608-1.5795 1.0349-0.9805 2.1242-2.2877 0.054-2.451 0.2724-4.7931 0.2723-2.3966 0.6536-4.9021zm5.828 2.2877q2.3965-3.9217 4.3029-7.5165 0.817-1.5251 1.5795-3.1046 0.817-1.6341 1.4162-3.1047 0.5991-1.4706 0.9804-2.7233 0.3813-1.2528 0.3813-2.1787 0-0.926-0.7626-0.926-0.7081 0-1.7429 1.743-1.0349 1.6885-2.1787 4.4663t-2.2332 6.2637q-1.0349 3.4859-1.7429 7.0808zm0.5446 15.632q-1.5251 0-2.7778-0.5447-1.2527-0.5991-2.1787-1.4161-0.8715-0.817-1.4161-1.743-0.4902-0.9259-0.5447-1.634-1.3072 1.5251-2.7778 2.6689-1.2528 1.0349-2.8868 1.8519-1.5796 0.817-3.2681 0.817-1.1438 0-2.2876-0.4902-1.0893-0.4902-1.9608-1.3617t-1.4161-2.1242q-0.5447-1.2528-0.5447-2.7234 0-3.3225 1.3072-6.1003 1.3072-2.8323 3.268-4.7931 1.9609-2.0153 4.194-3.1047 2.2876-1.1438 4.194-1.1438 0.7625 0 1.4161 0.1634 0.6537 0.1089 1.0894 0.2723 0.5447 0.2179 0.9259 0.4358 0.926-3.3225 2.2332-6.4816t2.8323-5.6102q1.5795-2.451 3.3225-3.9216t3.6493-1.4706q0.817 0 1.634 0.4357 0.8715 0.4358 1.5251 1.1438 0.7081 0.7081 1.1438 1.634 0.4358 0.926 0.4358 1.8519 0 0.9804-0.5447 2.4511-0.4902 1.4706-1.3617 3.2135-0.817 1.6885-1.9063 3.5404-1.0349 1.8519-2.1787 3.6493-2.6145 4.194-5.9914 8.9327-0.109 0.708-0.1634 1.4161-0.054 0.6536-0.054 1.3072 0 2.2876 0.7081 3.7583 0.708 1.4706 2.2331 1.4706 1.0894 0 2.1242-0.7081 1.0349-0.7081 1.8519-1.634 0.9804-0.9804 1.7975-2.3421 0.054-0.1634 0.2723-0.3813 0.1089-0.1089 0.3268-0.2178 0.2179-0.1634 0.4902-0.1634 0.4357 0 0.7625 0.3268 0.3813 0.3268 0.3813 0.7625 0 0.2179-0.1089 0.4357-0.054 0.1634-0.1634 0.3813-0.109 0.2179-0.2179 0.4902-1.1983 1.9064-2.6689 3.377-1.2527 1.2527-2.9957 2.2876-1.6885 1.0349-3.7038 1.0349z" fill="#504999" stroke="#fff" stroke-width="7.0525" style="text-decoration-color:#000000;text-decoration-line:none"/>
   <path d="m1236.9 2529.7c-0.7626 1.162-1.4344 2.2151-2.0153 3.1592-0.5084 0.8351-0.9805 1.6158-1.4162 2.342-0.3994 0.7263-0.5991 1.1802-0.5991 1.3617 0 0.7989 0.036 1.5796 0.1089 2.3421 0.1089 0.7263 0.2723 1.3799 0.4902 1.9608 0.2179 0.581 0.4902 1.0531 0.817 1.4162 0.3268 0.3268 0.7444 0.4902 1.2528 0.4902 0.8351 0 1.5432-0.4539 2.1242-1.3617 0.6173-0.9078 0.9259-1.979 0.9259-3.2136 0-0.6899-0.091-1.4161-0.2723-2.1786-0.1815-0.7626-0.3812-1.507-0.5991-2.2332-0.1816-0.7625-0.3632-1.4888-0.5447-2.1787-0.1815-0.7262-0.2723-1.3617-0.2723-1.9064zm-0.054 15.469c-1.3435 0-2.6144-0.2723-3.8127-0.817-1.1983-0.5084-2.2513-1.162-3.1591-1.9609-0.8715-0.7989-1.5614-1.6703-2.0698-2.6144-0.5447-0.9441-0.817-1.8156-0.817-2.6144 0-0.7989 0.2723-1.4706 0.817-2.0153s1.1438-0.9986 1.7974-1.3617c0.7626-0.3994 1.6341-0.7262 2.6145-0.9804 0.2179-0.3631 0.5083-0.817 0.8714-1.3617 0.2905-0.4721 0.6718-1.0531 1.1439-1.743 0.472-0.7262 1.0167-1.5795 1.634-2.5599 1.2709-1.9245 2.3602-3.2499 3.268-3.9761 0.9078-0.7625 1.7067-1.1438 2.3966-1.1438 0.2905 0 0.581 0.091 0.8715 0.2723 0.3268 0.1453 0.6173 0.3268 0.8714 0.5447 0.2905 0.2179 0.5084 0.4357 0.6536 0.6536 0.1816 0.2179 0.2724 0.3994 0.2724 0.5446 0 0.1816-0.073 0.4176-0.2179 0.7081-0.1453 0.2542-0.3087 0.5447-0.4902 0.8715-0.1453 0.2905-0.2905 0.6173-0.4357 0.9804-0.1089 0.3268-0.1634 0.6718-0.1634 1.0349 0 1.0893 0.1089 2.0334 0.3268 2.8323s0.4539 1.5614 0.708 2.2876c0.2905 0.6899 0.5447 1.3799 0.7626 2.0698 0.2179 0.6536 0.3268 1.398 0.3268 2.2331 0 0.7263-0.073 1.3436-0.2179 1.8519-0.1089 0.4721-0.2542 0.8897-0.4357 1.2528-0.1816 0.3994-0.3813 0.7443-0.5992 1.0348-2.4523 3.9999-4.8946 3.9469-6.9173 3.9762zm-15.722-2.3421q2.6144-1.5251 4.3029-3.1047 1.6885-1.634 2.8867-3.268 0.109-0.1634 0.3269-0.3813 0.1634-0.1089 0.3812-0.2178 0.2179-0.1634 0.4902-0.1634 0.4902 0 0.817 0.3268t0.3268 0.7625q0 0.2179-0.1089 0.4357-0.1089 0.1634-0.2179 0.3813-0.1634 0.2179-0.2723 0.4902-1.4161 1.9064-3.7038 3.9217-2.2876 1.9608-6.0458 3.9216-0.7081 2.451-1.6341 4.9021-0.8714 2.5055-2.1787 4.4663-1.3072 1.9608-3.1591 3.2136-1.7974 1.2527-4.2484 1.2527-1.2528 0-2.3966-0.4357-1.0893-0.3813-1.9608-1.0894-0.817-0.6536-1.3072-1.634-0.4902-0.9259-0.4902-2.0153 0-1.3617 0.817-2.56 0.8715-1.1438 2.3966-2.1787 1.525-1.0348 3.5948-2.0152 2.1242-0.926 4.5753-1.9064 0.4357-1.5251 0.708-2.8868 0.2724-1.3616 0.4902-2.3421-0.6536 0.7626-1.5251 1.5251-0.817 0.7081-1.7974 1.3072-0.9804 0.5447-2.0697 0.8715-1.0349 0.3813-2.0698 0.3813-0.9259 0-1.9608-0.4357-0.9804-0.3813-1.7974-1.0894t-1.3617-1.6885-0.5447-2.0697q0-1.4707 0.4902-3.6493 0.4902-2.1787 1.1438-4.4119 0.6536-2.2876 1.3617-4.3029 0.7626-2.0153 1.2528-3.1591 0.2178-0.4358 0.5991-0.7081 0.3813-0.3268 0.8715-0.3268 0.5991 0 1.3617 0.3813 0.7625 0.3812 1.4161 0.8715 0.6536 0.4902 1.0894 1.0348 0.4357 0.4902 0.4357 0.817 0 1.0894-0.5447 2.6689-0.5447 1.5796-1.2527 3.4315-0.6536 1.8519-1.1983 3.8127t-0.5447 3.7582q0 0.6536 0.3268 1.1438 0.3268 0.4903 0.926 0.4903 0.6536 0 1.3617-0.3269 0.708-0.3812 1.3616-0.9259 0.6536-0.5991 1.1983-1.2527 0.5447-0.7081 0.8715-1.3617 0.7625-1.4162 1.4161-3.1591 0.6536-1.7975 1.1983-3.5949 0.5992-1.8519 1.0349-3.5948 0.4902-1.743 0.9259-3.1591 0.109-0.4902 0.5447-0.7626 0.4358-0.2723 0.9804-0.2723 0.5992 0 1.3072 0.3813 0.7626 0.3812 1.4162 0.8715 0.6536 0.4902 1.0893 1.0348 0.4358 0.4902 0.4358 0.817 0 0.5992-0.3268 2.1243-0.3268 1.525-0.817 3.5948-0.4902 2.0153-1.1438 4.3029-0.5992 2.2876-1.1983 4.3029zm-13.399 14.052q0.8715 0 1.6885-0.6536 0.817-0.5991 1.5251-1.634t1.3072-2.451q0.5991-1.3617 1.0893-2.8323-1.4706 0.817-2.6689 1.6885-1.1982 0.9259-2.0697 1.7974t-1.3617 1.634q-0.4902 0.817-0.4902 1.3617 0 1.0893 0.9804 1.0893zm-2.976-18.791q-1.1983 1.9064-2.6689 3.377-1.2528 1.2527-2.9957 2.2876-1.6885 1.0349-3.7038 1.0349-2.2876 0-3.8672-1.1438-1.5795-1.1983-1.8519-3.4859-1.0893 1.3617-2.342 2.3421-1.0894 0.8714-2.4511 1.5795t-2.9412 0.7081q-1.0894 0-2.1242-0.4357-0.9804-0.3813-1.743-1.1439-0.7081-0.7625-1.1438-1.7974t-0.4357-2.2876q0-2.9412 1.0893-5.828 1.1438-2.8868 2.9412-5.1744 1.7975-2.3421 4.0306-3.7582 2.2332-1.4162 4.4663-1.4162 1.6341 0 2.7779 0.4357 1.1438 0.3813 1.8519 0.8715 0.817 0.5992 1.3072 1.2528 0.5991 0 1.2527 0.1634 0.7081 0.1089 1.2528 0.4357 0.5991 0.2723 0.9804 0.7625 0.3813 0.4903 0.3813 1.1983 0 0.5992-0.4903 1.9609-0.4902 1.3616-1.0893 3.0501-0.5991 1.634-1.0893 3.4315-0.4903 1.7429-0.4903 3.1046 0 0.6536 0.3813 1.0893 0.4358 0.4358 1.1438 0.4358 1.0894 0 2.1243-0.7081 1.0893-0.7081 1.9063-1.634 0.9804-0.9804 1.7974-2.3421 0.054-0.1634 0.2724-0.3813 0.1089-0.1089 0.3268-0.2178 0.2178-0.1634 0.4902-0.1634 0.4357 0 0.7625 0.3268 0.3813 0.3268 0.3813 0.7625 0 0.2179-0.1089 0.4357-0.054 0.1634-0.1634 0.3813-0.109 0.2179-0.2179 0.4902zm-12.636-9.6407q0-1.1983-0.5992-1.743-0.5446-0.5991-1.3616-0.5991-1.1983 0-2.4511 1.2528-1.2527 1.2527-2.2876 3.1046-0.9804 1.7974-1.634 3.9216-0.6536 2.1243-0.6536 3.8127 0 2.4511 1.5795 2.4511 0.9804 0 2.2332-1.3072 1.3072-1.3073 2.451-3.2136 1.1438-1.9064 1.9064-3.9761 0.817-2.1242 0.817-3.7038zm-28.902-1.5796q-0.2179-0.2178-0.4358-0.4357-0.2178-0.1634-0.4902-0.2723-0.2723-0.1634-0.5991-0.1634-1.3072 0-2.6689 1.2527-1.3072 1.2528-2.3966 3.1047-1.0349 1.7974-1.6885 3.8671-0.6536 2.0698-0.6536 3.7583 0 1.4706 0.5447 2.2876t1.4706 0.817q0.8715 0 1.9064-0.6536 1.0348-0.7081 1.9608-1.5795 1.0349-0.9805 2.1242-2.2877 0.054-2.451 0.2724-4.7931 0.2723-2.3966 0.6536-4.9021zm5.828 2.2877q2.3965-3.9217 4.3029-7.5165 0.817-1.5251 1.5795-3.1046 0.817-1.6341 1.4162-3.1047 0.5991-1.4706 0.9804-2.7233 0.3813-1.2528 0.3813-2.1787 0-0.926-0.7626-0.926-0.7081 0-1.7429 1.743-1.0349 1.6885-2.1787 4.4663t-2.2332 6.2637q-1.0349 3.4859-1.7429 7.0808zm0.5446 15.632q-1.5251 0-2.7778-0.5447-1.2527-0.5991-2.1787-1.4161-0.8715-0.817-1.4161-1.743-0.4902-0.9259-0.5447-1.634-1.3072 1.5251-2.7778 2.6689-1.2528 1.0349-2.8868 1.8519-1.5796 0.817-3.2681 0.817-1.1438 0-2.2876-0.4902-1.0893-0.4902-1.9608-1.3617t-1.4161-2.1242q-0.5447-1.2528-0.5447-2.7234 0-3.3225 1.3072-6.1003 1.3072-2.8323 3.268-4.7931 1.9609-2.0153 4.194-3.1047 2.2876-1.1438 4.194-1.1438 0.7625 0 1.4161 0.1634 0.6537 0.1089 1.0894 0.2723 0.5447 0.2179 0.9259 0.4358 0.926-3.3225 2.2332-6.4816t2.8323-5.6102q1.5795-2.451 3.3225-3.9216t3.6493-1.4706q0.817 0 1.634 0.4357 0.8715 0.4358 1.5251 1.1438 0.7081 0.7081 1.1438 1.634 0.4358 0.926 0.4358 1.8519 0 0.9804-0.5447 2.4511-0.4902 1.4706-1.3617 3.2135-0.817 1.6885-1.9063 3.5404-1.0349 1.8519-2.1787 3.6493-2.6145 4.194-5.9914 8.9327-0.109 0.708-0.1634 1.4161-0.054 0.6536-0.054 1.3072 0 2.2876 0.7081 3.7583 0.708 1.4706 2.2331 1.4706 1.0894 0 2.1242-0.7081 1.0349-0.7081 1.8519-1.634 0.9804-0.9804 1.7975-2.3421 0.054-0.1634 0.2723-0.3813 0.1089-0.1089 0.3268-0.2178 0.2179-0.1634 0.4902-0.1634 0.4357 0 0.7625 0.3268 0.3813 0.3268 0.3813 0.7625 0 0.2179-0.1089 0.4357-0.054 0.1634-0.1634 0.3813-0.109 0.2179-0.2179 0.4902-1.1983 1.9064-2.6689 3.377-1.2527 1.2527-2.9957 2.2876-1.6885 1.0349-3.7038 1.0349z" fill="#504999" stroke-width="1.2457" style="text-decoration-color:#000000;text-decoration-line:none"/>
  </g>
 </g>
</svg>
