<?xml version="1.0" encoding="UTF-8" standalone="no"?>
<svg
   version="1.1"
   viewBox="0 0 182 182"
   height="182"
   width="182"
   data-name="Layer 1"
   id="a9e06111-6f74-41cd-a7ac-d054423684ef"
   sodipodi:docname="circle-cooldays-cta.svg"
   inkscape:version="1.2.1 (9c6d41e410, 2022-07-14)"
   xmlns:inkscape="http://www.inkscape.org/namespaces/inkscape"
   xmlns:sodipodi="http://sodipodi.sourceforge.net/DTD/sodipodi-0.dtd"
   xmlns="http://www.w3.org/2000/svg"
   xmlns:svg="http://www.w3.org/2000/svg"
   xmlns:rdf="http://www.w3.org/1999/02/22-rdf-syntax-ns#"
   xmlns:cc="http://creativecommons.org/ns#"
   xmlns:dc="http://purl.org/dc/elements/1.1/">
  <sodipodi:namedview
     id="namedview50"
     pagecolor="#ffffff"
     bordercolor="#666666"
     borderopacity="1.0"
     inkscape:showpageshadow="2"
     inkscape:pageopacity="0.0"
     inkscape:pagecheckerboard="0"
     inkscape:deskcolor="#d1d1d1"
     showgrid="false"
     inkscape:zoom="1.8338154"
     inkscape:cx="218.66978"
     inkscape:cy="115.87862"
     inkscape:window-width="1920"
     inkscape:window-height="1019"
     inkscape:window-x="0"
     inkscape:window-y="32"
     inkscape:window-maximized="1"
     inkscape:current-layer="layer2" />
  <metadata
     id="metadata99">
    <rdf:RDF>
      <cc:Work
         rdf:about="">
        <dc:format>image/svg+xml</dc:format>
        <dc:type
           rdf:resource="http://purl.org/dc/dcmitype/StillImage" />
      </cc:Work>
    </rdf:RDF>
  </metadata>
  <defs
     id="defs97">
    <marker
       orient="auto"
       refY="0"
       refX="0"
       id="TriangleOutS"
       style="overflow:visible">
      <path
         id="path1029"
         d="M 5.77,0 -2.88,5 V -5 Z"
         style="fill:#5c2983;fill-opacity:1;fill-rule:evenodd;stroke:#5c2983;stroke-width:1pt;stroke-opacity:1"
         transform="scale(0.2)" />
    </marker>
    <marker
       orient="auto"
       refY="0"
       refX="0"
       id="TriangleOutM"
       style="overflow:visible">
      <path
         id="path1026"
         d="M 5.77,0 -2.88,5 V -5 Z"
         style="fill:#000000;fill-opacity:1;fill-rule:evenodd;stroke:#000000;stroke-width:1pt;stroke-opacity:1"
         transform="scale(0.4)" />
    </marker>
    <marker
       style="overflow:visible"
       id="marker1067"
       refX="0"
       refY="0"
       orient="auto">
      <path
         transform="scale(0.2)"
         style="fill:#5c2983;fill-opacity:1;fill-rule:evenodd;stroke:#5c2983;stroke-width:1pt;stroke-opacity:1"
         d="M 5.77,0 -2.88,5 V -5 Z"
         id="path1065" />
    </marker>
    <marker
       orient="auto"
       refY="0"
       refX="0"
       id="TriangleOutM-3"
       style="overflow:visible">
      <path
         id="path1026-63"
         d="M 5.77,0 -2.88,5 V -5 Z"
         style="fill:#000000;fill-opacity:1;fill-rule:evenodd;stroke:#000000;stroke-width:1pt;stroke-opacity:1"
         transform="scale(0.4)" />
    </marker>
    <marker
       style="overflow:visible"
       id="TriangleOutS-3"
       refX="0"
       refY="0"
       orient="auto">
      <path
         transform="scale(0.2)"
         style="fill:#5c2983;fill-opacity:1;fill-rule:evenodd;stroke:#5c2983;stroke-width:1pt;stroke-opacity:1"
         d="M 5.77,0 -2.88,5 V -5 Z"
         id="path1029-4" />
    </marker>
    <marker
       style="overflow:visible"
       id="TriangleOutM-5"
       refX="0"
       refY="0"
       orient="auto">
      <path
         transform="scale(0.4)"
         style="fill:#000000;fill-opacity:1;fill-rule:evenodd;stroke:#000000;stroke-width:1pt;stroke-opacity:1"
         d="M 5.77,0 -2.88,5 V -5 Z"
         id="path1026-6" />
    </marker>
    <marker
       style="overflow:visible"
       id="TriangleOutS-7"
       refX="0"
       refY="0"
       orient="auto">
      <path
         transform="scale(0.2)"
         style="fill:#5c2983;fill-opacity:1;fill-rule:evenodd;stroke:#5c2983;stroke-width:1pt;stroke-opacity:1"
         d="M 5.77,0 -2.88,5 V -5 Z"
         id="path1029-0" />
    </marker>
    <marker
       style="overflow:visible"
       id="TriangleOutM-6"
       refX="0"
       refY="0"
       orient="auto">
      <path
         transform="scale(0.4)"
         style="fill:#000000;fill-opacity:1;fill-rule:evenodd;stroke:#000000;stroke-width:1pt;stroke-opacity:1"
         d="M 5.77,0 -2.88,5 V -5 Z"
         id="path1026-0" />
    </marker>
    <marker
       style="overflow:visible"
       id="TriangleOutS-2"
       refX="0"
       refY="0"
       orient="auto">
      <path
         transform="scale(0.2)"
         style="fill:#5c2983;fill-opacity:1;fill-rule:evenodd;stroke:#5c2983;stroke-width:1pt;stroke-opacity:1"
         d="M 5.77,0 -2.88,5 V -5 Z"
         id="path1029-2" />
    </marker>
    <marker
       style="overflow:visible"
       id="TriangleOutM-7"
       refX="0"
       refY="0"
       orient="auto">
      <path
         transform="scale(0.4)"
         style="fill:#000000;fill-opacity:1;fill-rule:evenodd;stroke:#000000;stroke-width:1pt;stroke-opacity:1"
         d="M 5.77,0 -2.88,5 V -5 Z"
         id="path1026-03" />
    </marker>
    <marker
       orient="auto"
       refY="0"
       refX="0"
       id="marker1067-6"
       style="overflow:visible">
      <path
         id="path1065-3"
         d="M 5.77,0 -2.88,5 V -5 Z"
         style="fill:#5c2983;fill-opacity:1;fill-rule:evenodd;stroke:#5c2983;stroke-width:1pt;stroke-opacity:1"
         transform="scale(0.2)" />
    </marker>
    <marker
       style="overflow:visible"
       id="TriangleOutM-79"
       refX="0"
       refY="0"
       orient="auto">
      <path
         transform="scale(0.4)"
         style="fill:#000000;fill-opacity:1;fill-rule:evenodd;stroke:#000000;stroke-width:1pt;stroke-opacity:1"
         d="M 5.77,0 -2.88,5 V -5 Z"
         id="path1026-7" />
    </marker>
    <clipPath
       clipPathUnits="userSpaceOnUse"
       id="clipPath17919">
      <ellipse
         style="fill:#ffffff;fill-opacity:1;stroke:#5c2983;stroke-width:0.264583;stroke-linecap:round;stroke-linejoin:round;stop-color:#000000"
         id="circle17921"
         cx="550.32507"
         cy="104.39247"
         rx="60.340656"
         ry="63.019352"
         d="m 588.60561,116.17948 c 8.95221,7.35272 16.76582,16.84704 19.98001,27.96809 3.2353,11.19409 1.75002,24.16203 -8.45644,37.33155 -8.8893,11.45314 -25.05088,19.92312 -47.96725,21.50179 -0.15583,-0.003 -0.31148,-0.007 -0.46694,-0.011 -22.91992,-0.59305 -39.9558,-8.73066 -49.97509,-20.496 0,0 0,0 0,0 -11.22868,-13.72429 -12.9578,-27.42016 -9.51494,-38.74558 3.4231,-11.2604 11.74121,-20.61444 21.02846,-27.66884 9.80143,-7.44497 20.02454,-12.03021 30.01979,-16.545316 9.7367,-4.398309 17.03738,-7.86815 19.11264,-13.383065 0,-10e-7 0,-2e-6 0,-2e-6 0.62567,-5.151705 -3.62718,-8.331998 -12.61556,-9.145473 -0.0606,-0.0055 -0.12142,-0.01086 -0.18239,-0.01613 -8.72217,1.294269 -12.08957,4.285626 -10.22117,8.992352 3.01265,4.852459 10.47137,8.254499 20.0917,12.834863 9.77379,4.653431 19.81614,9.702471 29.16718,17.382761 z" />
    </clipPath>
    <clipPath
       clipPathUnits="userSpaceOnUse"
       id="clipPath8225">
      <ellipse
         style="fill:#ffffff;fill-opacity:1;stroke:#5c2983;stroke-width:0.264583;stroke-linecap:round;stroke-linejoin:round;stop-color:#000000"
         id="ellipse8223"
         cx="550.32507"
         cy="104.39247"
         rx="60.340656"
         ry="63.019352" />
    </clipPath>
  </defs>
  <g
     transform="translate(-5.0845122,-17.744524)"
     id="layer2">
    <g
       id="path15550">
      <path
         style="color:#000000;fill:#ffffff;stroke-width:0.999999;stroke-linecap:round;stroke-linejoin:round;-inkscape-stroke:none"
         d="m 186.08451,108.74452 a 90,90 0 0 1 -89.999999,90 90,90 0 0 1 -90.0000002,-90 90,90 0 0 1 90.0000002,-89.999998 90,90 0 0 1 89.999999,89.999998 z"
         id="path8218" />
      <path
         style="color:#000000;fill:#5c2983;stroke-linecap:round;stroke-linejoin:round;-inkscape-stroke:none"
         d="m 96.083984,18.244141 c -49.975797,0 -90.4999996,40.524202 -90.4999996,90.499999 0,49.9758 40.5242026,90.5 90.4999996,90.5 49.975796,0 90.499996,-40.5242 90.499996,-90.5 0,-49.975797 -40.5242,-90.499999 -90.499996,-90.499999 z m 0,1 c 49.435356,0 89.499996,40.064641 89.499996,89.499999 0,49.43536 -40.06464,89.5 -89.499996,89.5 -49.435358,0 -89.4999996,-40.06464 -89.4999996,-89.5 0,-49.435358 40.0646416,-89.499999 89.4999996,-89.499999 z"
         id="path8220" />
    </g>
    <path
       id="path24424"
       style="font-weight:bold;font-size:21.1936px;line-height:1.4;font-family:Carlito;-inkscape-font-specification:'Carlito Bold';text-align:justify;letter-spacing:-0.0288198px;fill:#5c2983;stroke-width:0.990721"
       d="m 115.51995,106.72938 h 9.87933 v 4.62377 H 109.88379 V 82.925541 h 5.63616 z m -8.89816,-9.611439 q 0,3.125319 -0.98579,5.801119 -0.98579,2.65438 -2.80736,4.60235 -1.80014,1.94798 -4.350333,3.0397 -2.5502,1.09173 -5.65759,1.09173 -3.10738,0 -5.65758,-1.09173 -2.5502,-1.09172 -4.37176,-3.0397 -1.82157,-1.94797 -2.8288,-4.60235 -0.98579,-2.6758 -0.98579,-5.801119 0,-3.103921 0.98579,-5.758305 1.00723,-2.675793 2.8288,-4.602361 1.82156,-1.947978 4.37176,-3.0397 2.5502,-1.113129 5.65758,-1.113129 3.10739,0 5.65759,1.113129 2.550193,1.091722 4.350333,3.0397 1.82157,1.947976 2.80736,4.602361 0.98579,2.654384 0.98579,5.758305 z m -5.7433,0 q 0,-2.269074 -0.55718,-4.067203 -0.557193,-1.798133 -1.607273,-3.061107 -1.02865,-1.262974 -2.52877,-1.92657 -1.47869,-0.685002 -3.36455,-0.685002 -1.88586,0 -3.38597,0.685002 -1.50012,0.663596 -2.5502,1.92657 -1.02865,1.262974 -1.58584,3.061107 -0.55718,1.798129 -0.55718,4.067203 0,2.290476 0.55718,4.110019 0.55719,1.79813 1.58584,3.0611 1.05008,1.24157 2.5502,1.90516 1.50011,0.6636 3.38597,0.6636 1.88586,0 3.36455,-0.6636 1.50012,-0.66359 2.52877,-1.90516 1.05008,-1.26297 1.607273,-3.0611 0.55718,-1.819543 0.55718,-4.110019 z m -23.877893,0 q 0,3.125319 -0.98579,5.801119 -0.98579,2.65438 -2.80736,4.60235 -1.80014,1.94798 -4.35033,3.0397 -2.5502,1.09173 -5.65758,1.09173 -3.10739,0 -5.65758,-1.09173 -2.5502,-1.09172 -4.37177,-3.0397 -1.82157,-1.94797 -2.82879,-4.60235 -0.98579,-2.6758 -0.98579,-5.801119 0,-3.103921 0.98579,-5.758305 1.00722,-2.675793 2.82879,-4.602361 1.82157,-1.947978 4.37177,-3.0397 2.55019,-1.113129 5.65758,-1.113129 3.10738,0 5.65758,1.113129 2.55019,1.091722 4.35033,3.0397 1.82157,1.947976 2.80736,4.602361 0.98579,2.654384 0.98579,5.758305 z m -5.7433,0 q 0,-2.269074 -0.55718,-4.067203 -0.55719,-1.798133 -1.60727,-3.061107 -1.02865,-1.262974 -2.52877,-1.92657 -1.47868,-0.685002 -3.36454,-0.685002 -1.88586,0 -3.38598,0.685002 -1.50012,0.663596 -2.5502,1.92657 -1.02865,1.262974 -1.58584,3.061107 -0.55718,1.798129 -0.55718,4.067203 0,2.290476 0.55718,4.110019 0.55719,1.79813 1.58584,3.0611 1.05008,1.24157 2.5502,1.90516 1.50012,0.6636 3.38598,0.6636 1.88586,0 3.36454,-0.6636 1.50012,-0.66359 2.52877,-1.90516 1.05008,-1.26297 1.60727,-3.0611 0.55718,-1.819543 0.55718,-4.110019 z m -26.02091,7.342369 q 0.45004,0 0.77149,0.3425 l 2.25018,2.41892 q -1.54298,2.16203 -3.87888,3.29657 -2.31446,1.13454 -5.50757,1.13454 -2.89308,0 -5.20754,-1.07032 -2.31447,-1.09172 -3.94316,-3.01829 -1.60727,-1.94798 -2.48591,-4.60236 -0.85721,-2.67579 -0.85721,-5.843929 0,-3.189544 0.9215,-5.843931 0.94293,-2.67579 2.63592,-4.602361 1.69299,-1.92657 4.05031,-2.996886 2.35733,-1.070317 5.18612,-1.070317 2.87165,0 5.07896,1.027503 2.20732,1.006099 3.686,2.675792 l -1.88586,2.63298 q -0.19288,0.235468 -0.45003,0.428125 -0.23574,0.192665 -0.68577,0.192665 -0.45004,0 -0.87864,-0.342501 -0.40717,-0.342501 -1.02865,-0.749221 -0.60005,-0.40672 -1.52155,-0.749221 -0.9215,-0.342501 -2.35732,-0.342501 -1.56441,0 -2.85022,0.663595 -1.28582,0.64219 -2.20732,1.905164 -0.9215,1.241569 -1.43582,3.061107 -0.4929,1.79813 -0.4929,4.110016 0,2.333289 0.55719,4.152831 0.55718,1.81954 1.50011,3.08251 0.96436,1.24156 2.25018,1.90516 1.28581,0.64219 2.7645,0.64219 0.87864,0 1.58583,-0.0856 0.7072,-0.10704 1.30725,-0.3425 0.62148,-0.25688 1.15723,-0.64219 0.53576,-0.38532 1.07151,-0.96329 0.2143,-0.17125 0.42861,-0.27828 0.23573,-0.12843 0.47146,-0.12843 z" />
    <path
       style="fill:#5c2983;fill-opacity:1;stroke:#5c2983;stroke-width:2.62127;stroke-linecap:round;stroke-miterlimit:4;stroke-dasharray:none;stroke-opacity:1;stop-color:#000000"
       d="m 134.17175,126.9266 h -28.61051 m -54.491673,0 h -24.19407"
       id="path15979" />
    <path
       id="path15987"
       style="font-style:normal;font-variant:normal;font-weight:normal;font-stretch:normal;font-size:54.4673px;line-height:1.4;font-family:Milkshake;-inkscape-font-specification:Milkshake;text-align:justify;text-decoration-line:none;text-decoration-color:#000000;letter-spacing:-0.0740668px;writing-mode:lr-tb;fill:#504999;fill-opacity:1;stroke:#ffffff;stroke-width:6.21419;stroke-miterlimit:4;stroke-dasharray:none;stroke-opacity:1"
       d="m 103.02338,119.37821 c -0.5093,0.77737 -0.95796,1.4819 -1.34592,2.1135 -0.33953,0.55868 -0.65482,1.08097 -0.9458,1.56679 -0.26674,0.4859 -0.40011,0.78956 -0.40011,0.91098 0,0.53446 0.024,1.05675 0.0727,1.56686 0.0727,0.48589 0.18185,0.92315 0.32738,1.31177 0.14551,0.38869 0.32737,0.70452 0.54563,0.94744 0.21825,0.21863 0.49714,0.32794 0.83668,0.32794 0.55772,0 1.03062,-0.30366 1.41864,-0.91097 0.41226,-0.60732 0.61836,-1.32395 0.61836,-2.1499 0,-0.46154 -0.0608,-0.94737 -0.18186,-1.45748 -0.12121,-0.51018 -0.25458,-1.00818 -0.4001,-1.49401 -0.12128,-0.51011 -0.24256,-0.996 -0.36378,-1.45754 -0.12122,-0.48583 -0.18185,-0.91098 -0.18185,-1.27538 z m -0.0361,10.3486 c -0.89725,0 -1.74602,-0.18217 -2.5463,-0.54657 -0.800283,-0.34012 -1.503523,-0.77738 -2.109793,-1.31184 -0.58204,-0.53446 -1.04278,-1.11743 -1.38232,-1.74903 -0.36377,-0.6316 -0.54563,-1.21463 -0.54563,-1.74903 0,-0.53446 0.18186,-0.98383 0.54563,-1.34823 0.36378,-0.3644 0.76389,-0.66806 1.20039,-0.91098 0.5093,-0.26719 1.09133,-0.48582 1.74609,-0.65588 0.145523,-0.24291 0.339473,-0.54657 0.581963,-0.91098 0.19401,-0.31583 0.44866,-0.70452 0.76395,-1.16606 0.31523,-0.48583 0.679,-1.05669 1.09127,-1.71257 0.84876,-1.28749 1.57625,-2.17418 2.18252,-2.66001 0.60627,-0.51011 1.13982,-0.7652 1.60057,-0.7652 0.19401,0 0.38802,0.0609 0.58203,0.18217 0.21825,0.0972 0.41226,0.21863 0.58196,0.36441 0.19401,0.14576 0.33953,0.29148 0.4365,0.43725 0.12128,0.14578 0.18192,0.2672 0.18192,0.36434 0,0.12149 -0.0488,0.27937 -0.14551,0.47372 -0.097,0.17006 -0.20617,0.3644 -0.32738,0.58303 -0.097,0.19434 -0.19401,0.41297 -0.29098,0.65589 -0.0727,0.21862 -0.10912,0.44943 -0.10912,0.69234 0,0.72874 0.0727,1.36034 0.21825,1.89481 0.14552,0.53446 0.30314,1.04457 0.47284,1.5304 0.194,0.46154 0.36377,0.92315 0.5093,1.38469 0.14551,0.43726 0.21825,0.93526 0.21825,1.49394 0,0.4859 -0.0488,0.89887 -0.14552,1.23892 -0.0727,0.31583 -0.16977,0.59521 -0.29098,0.83812 -0.12128,0.2672 -0.25465,0.49794 -0.40018,0.69228 -0.60206,1.48437 -2.54329,2.71761 -4.6197,2.66007 z m -10.499833,-1.56686 q 1.74602,-1.02029 2.87368,-2.07704 1.12766,-1.09314 1.92788,-2.18629 0.0728,-0.10931 0.21832,-0.25508 0.10912,-0.0729 0.25458,-0.14571 0.14552,-0.10932 0.32738,-0.10932 0.32738,0 0.54563,0.21863 0.21825,0.21863 0.21825,0.51011 0,0.14579 -0.0727,0.29149 -0.0727,0.10931 -0.14552,0.25509 -0.10912,0.14576 -0.18186,0.32794 -0.94573,1.27538 -2.47357,2.62361 -1.52777,1.31177 -4.03767,2.62354 -0.4729,1.63972 -1.09133,3.2795 -0.58196,1.67618 -1.45504,2.98795 -0.87301,1.31177 -2.1098,2.1499 -1.20039,0.83805 -2.83728,0.83805 -0.83668,0 -1.60057,-0.29148 -0.72748,-0.25509 -1.30951,-0.72881 -0.54563,-0.43726 -0.87301,-1.09314 -0.32738,-0.61943 -0.32738,-1.34824 0,-0.91097 0.54563,-1.71263 0.58203,-0.7652 1.60056,-1.45755 1.01847,-0.69228 2.40078,-1.34817 1.41864,-0.61949 3.05561,-1.27538 0.29098,-1.02028 0.47283,-1.93126 0.18192,-0.91091 0.32738,-1.56686 -0.43651,0.51018 -1.01853,1.02029 -0.54564,0.47372 -1.20039,0.87451 -0.65476,0.36441 -1.38225,0.58304 -0.69115,0.25508 -1.38231,0.25508 -0.61836,0 -1.30951,-0.29148 -0.65476,-0.25509 -1.20039,-0.72881 -0.54563,-0.47371 -0.90941,-1.1296 -0.36378,-0.65589 -0.36378,-1.38463 0,-0.98389 0.32738,-2.44137 0.32738,-1.45755 0.76388,-2.95156 0.43651,-1.5304 0.90941,-2.87863 0.5093,-1.34823 0.83668,-2.11344 0.14546,-0.29155 0.40011,-0.47371 0.25465,-0.21863 0.58203,-0.21863 0.40011,0 0.90941,0.25509 0.50923,0.25502 0.94574,0.58303 0.4365,0.32794 0.72755,0.69228 0.29098,0.32794 0.29098,0.54657 0,0.72881 -0.36378,1.78549 -0.36377,1.05675 -0.83661,2.29567 -0.4365,1.23892 -0.80028,2.55069 -0.36378,1.31177 -0.36378,2.51423 0,0.43726 0.21826,0.7652 0.21825,0.32801 0.61842,0.32801 0.43651,0 0.90941,-0.21869 0.47284,-0.25502 0.90934,-0.61943 0.43651,-0.4008 0.80028,-0.83805 0.36378,-0.47372 0.58203,-0.91098 0.50924,-0.94743 0.94574,-2.11343 0.43651,-1.20253 0.80028,-2.40499 0.40018,-1.23891 0.69116,-2.40491 0.32738,-1.16607 0.61836,-2.11344 0.0728,-0.32794 0.36378,-0.51017 0.29104,-0.18217 0.65475,-0.18217 0.40018,0 0.87301,0.25509 0.50931,0.25502 0.94581,0.58303 0.4365,0.32794 0.72749,0.69228 0.29105,0.32794 0.29105,0.54657 0,0.40087 -0.21826,1.42116 -0.21825,1.02022 -0.54563,2.40491 -0.32738,1.34823 -0.76388,2.87864 -0.40018,1.5304 -0.80029,2.87863 z m -8.94849,9.4011 q 0.58203,0 1.12766,-0.43725 0.54563,-0.4008 1.01854,-1.09315 0.4729,-0.69234 0.87301,-1.63971 0.4001,-0.91098 0.72748,-1.89481 -0.98213,0.54657 -1.78242,1.12961 -0.80021,0.61942 -1.38224,1.20245 -0.58203,0.58304 -0.90941,1.09315 -0.32738,0.54657 -0.32738,0.91097 0,0.72874 0.65476,0.72874 z m -1.98751,-13.53725 q -0.80029,1.27538 -1.78242,2.25921 -0.83668,0.83805 -2.00067,1.5304 -1.12766,0.69235 -2.47358,0.69235 -1.52777,0 -2.5827,-0.7652 -1.05486,-0.80166 -1.23679,-2.33207 -0.72748,0.91098 -1.5641,1.56687 -0.72755,0.58296 -1.63696,1.05668 -0.9094,0.47372 -1.96427,0.47372 -0.72755,0 -1.41864,-0.29149 -0.65476,-0.25508 -1.16406,-0.76526 -0.4729,-0.51011 -0.76388,-1.20246 -0.29098,-0.69235 -0.29098,-1.5304 0,-1.96766 0.72748,-3.89893 0.76388,-1.93126 1.96428,-3.46166 1.20045,-1.56686 2.69182,-2.51423 1.49144,-0.94744 2.98281,-0.94744 1.09133,0 1.85521,0.29148 0.76389,0.25509 1.23679,0.58304 0.54563,0.40086 0.87301,0.83812 0.40011,0 0.83661,0.10932 0.47291,0.0729 0.83668,0.29148 0.40011,0.18217 0.65476,0.51011 0.25465,0.32801 0.25465,0.80166 0,0.40086 -0.32744,1.31184 -0.32738,0.91091 -0.72749,2.04051 -0.40011,1.09315 -0.72749,2.29567 -0.32744,1.166 -0.32744,2.07697 0,0.43726 0.25465,0.72874 0.29105,0.29155 0.76388,0.29155 0.72755,0 1.41871,-0.47371 0.72749,-0.47372 1.27312,-1.09315 0.65476,-0.65588 1.20039,-1.56686 0.0361,-0.10932 0.18192,-0.25509 0.0727,-0.0729 0.21825,-0.1457 0.14546,-0.10932 0.32738,-0.10932 0.29098,0 0.50923,0.21863 0.25466,0.21863 0.25466,0.51011 0,0.14578 -0.0727,0.29148 -0.0361,0.10932 -0.10912,0.25509 -0.0728,0.14577 -0.14552,0.32794 z m -8.43919,-6.44961 q 0,-0.80167 -0.40018,-1.16607 -0.36371,-0.40079 -0.90934,-0.40079 -0.80028,0 -1.63696,0.83812 -0.83661,0.83805 -1.52777,2.07697 -0.65476,1.20246 -1.09126,2.62354 -0.43651,1.42116 -0.43651,2.55069 0,1.63979 1.05487,1.63979 0.65476,0 1.49144,-0.87452 0.87301,-0.87458 1.63689,-2.14989 0.76388,-1.27538 1.27318,-2.66001 0.54564,-1.42108 0.54564,-2.47783 z m -19.30247,-0.0908 q -0.14552,-0.1457 -0.29105,-0.29148 -0.14546,-0.10932 -0.32738,-0.18217 -0.18185,-0.10931 -0.4001,-0.10931 -0.87302,0 -1.78242,0.83805 -0.87301,0.83812 -1.60057,2.07704 -0.69115,1.20246 -1.12766,2.58708 -0.4365,1.3847 -0.4365,2.5143 0,0.98383 0.36377,1.5304 0.36378,0.54657 0.98214,0.54657 0.58203,0 1.27319,-0.43725 0.69108,-0.47372 1.30951,-1.05669 0.69116,-0.65595 1.41864,-1.53046 0.0361,-1.63972 0.18192,-3.20658 0.18186,-1.60332 0.43651,-3.2795 z m 3.89222,1.53047 q 1.60049,-2.62361 2.87368,-5.02853 0.54563,-1.02029 1.05486,-2.07697 0.54563,-1.09321 0.94581,-2.07704 0.40011,-0.98383 0.65476,-1.82188 0.25465,-0.83812 0.25465,-1.45755 0,-0.61949 -0.5093,-0.61949 -0.47291,0 -1.164,1.16606 -0.69115,1.12961 -1.45504,2.98795 -0.76388,1.85834 -1.49143,4.19041 -0.69116,2.33206 -1.16399,4.73704 z m 0.3637,10.45785 q -1.01853,0 -1.85514,-0.3644 -0.83661,-0.4008 -1.45504,-0.94737 -0.58203,-0.54657 -0.94574,-1.16606 -0.32738,-0.61943 -0.36378,-1.09315 -0.87301,1.02029 -1.85514,1.78549 -0.83668,0.69235 -1.92795,1.23892 -1.05493,0.54657 -2.18259,0.54657 -0.76388,0 -1.52777,-0.32794 -0.72748,-0.32794 -1.30951,-0.91097 -0.58203,-0.58304 -0.94574,-1.42109 -0.36378,-0.83812 -0.36378,-1.82195 0,-2.22275 0.87301,-4.08109 0.87301,-1.89481 2.18253,-3.20658 1.30958,-1.34823 2.80095,-2.07704 1.52777,-0.7652 2.80095,-0.7652 0.50924,0 0.94574,0.10932 0.43657,0.0729 0.72756,0.18216 0.36377,0.14578 0.61836,0.29155 0.61842,-2.22275 1.49143,-4.33618 0.87301,-2.11343 1.89155,-3.75321 1.05486,-1.63972 2.21892,-2.62355 1.16406,-0.98382 2.43718,-0.98382 0.54563,0 1.09126,0.29147 0.58203,0.29155 1.01853,0.7652 0.47291,0.47372 0.76389,1.09315 0.29105,0.61949 0.29105,1.23892 0,0.65588 -0.36378,1.63978 -0.32738,0.98383 -0.90941,2.14983 -0.54563,1.1296 -1.27311,2.36852 -0.69116,1.23892 -1.45504,2.44137 -1.74609,2.80578 -4.00135,5.97597 -0.0728,0.47365 -0.10912,0.94737 -0.0361,0.43725 -0.0361,0.87451 0,1.5304 0.4729,2.5143 0.47284,0.98383 1.49137,0.98383 0.72756,0 1.41865,-0.47372 0.69115,-0.47372 1.23678,-1.09314 0.65476,-0.65589 1.20046,-1.56686 0.0361,-0.10932 0.18185,-0.25509 0.0727,-0.0729 0.21826,-0.14571 0.14551,-0.10932 0.32738,-0.10932 0.29098,0 0.50923,0.21863 0.25465,0.21863 0.25465,0.51012 0,0.14578 -0.0727,0.29148 -0.0361,0.10931 -0.10914,0.25509 -0.0728,0.14576 -0.14551,0.32794 -0.80028,1.27538 -1.78242,2.25921 -0.83662,0.83805 -2.00067,1.5304 -1.12766,0.69235 -2.47358,0.69235 z" />
    <path
       id="path15997"
       style="font-style:normal;font-variant:normal;font-weight:normal;font-stretch:normal;font-size:54.4673px;line-height:1.4;font-family:Milkshake;-inkscape-font-specification:Milkshake;text-align:justify;text-decoration-line:none;text-decoration-color:#000000;letter-spacing:-0.0740668px;writing-mode:lr-tb;fill:#5c2983;fill-opacity:1;stroke:none;stroke-width:1.09752"
       d="m 103.02338,119.37821 c -0.5093,0.77737 -0.95796,1.4819 -1.34592,2.1135 -0.33953,0.55868 -0.65482,1.08097 -0.9458,1.56679 -0.26674,0.4859 -0.40011,0.78956 -0.40011,0.91098 0,0.53446 0.024,1.05675 0.0727,1.56686 0.0727,0.48589 0.18185,0.92315 0.32738,1.31177 0.14551,0.38869 0.32737,0.70452 0.54563,0.94744 0.21825,0.21863 0.49714,0.32794 0.83668,0.32794 0.55772,0 1.03062,-0.30366 1.41864,-0.91097 0.41226,-0.60732 0.61836,-1.32395 0.61836,-2.1499 0,-0.46154 -0.0608,-0.94737 -0.18186,-1.45748 -0.12121,-0.51018 -0.25458,-1.00818 -0.4001,-1.49401 -0.12128,-0.51011 -0.24256,-0.996 -0.36378,-1.45754 -0.12122,-0.48583 -0.18185,-0.91098 -0.18185,-1.27538 z m -0.0361,10.3486 c -0.89725,0 -1.74602,-0.18217 -2.5463,-0.54657 -0.800283,-0.34012 -1.503523,-0.77738 -2.109793,-1.31184 -0.58204,-0.53446 -1.04278,-1.11743 -1.38232,-1.74903 -0.36377,-0.6316 -0.54563,-1.21463 -0.54563,-1.74903 0,-0.53446 0.18186,-0.98383 0.54563,-1.34823 0.36378,-0.3644 0.76389,-0.66806 1.20039,-0.91098 0.5093,-0.26719 1.09133,-0.48582 1.74609,-0.65588 0.145523,-0.24291 0.339473,-0.54657 0.581963,-0.91098 0.19401,-0.31583 0.44866,-0.70452 0.76395,-1.16606 0.31523,-0.48583 0.679,-1.05669 1.09127,-1.71257 0.84876,-1.28749 1.57625,-2.17418 2.18252,-2.66001 0.60627,-0.51011 1.13982,-0.7652 1.60057,-0.7652 0.19401,0 0.38802,0.0609 0.58203,0.18217 0.21825,0.0972 0.41226,0.21863 0.58196,0.36441 0.19401,0.14576 0.33953,0.29148 0.4365,0.43725 0.12128,0.14578 0.18192,0.2672 0.18192,0.36434 0,0.12149 -0.0488,0.27937 -0.14551,0.47372 -0.097,0.17006 -0.20617,0.3644 -0.32738,0.58303 -0.097,0.19434 -0.19401,0.41297 -0.29098,0.65589 -0.0727,0.21862 -0.10912,0.44943 -0.10912,0.69234 0,0.72874 0.0727,1.36034 0.21825,1.89481 0.14552,0.53446 0.30314,1.04457 0.47284,1.5304 0.194,0.46154 0.36377,0.92315 0.5093,1.38469 0.14551,0.43726 0.21825,0.93526 0.21825,1.49394 0,0.4859 -0.0488,0.89887 -0.14552,1.23892 -0.0727,0.31583 -0.16977,0.59521 -0.29098,0.83812 -0.12128,0.2672 -0.25465,0.49794 -0.40018,0.69228 -1.63776,2.67593 -3.26884,2.64047 -4.6197,2.66007 z m -10.499833,-1.56686 q 1.74602,-1.02029 2.87368,-2.07704 1.12766,-1.09314 1.92788,-2.18629 0.0728,-0.10931 0.21832,-0.25508 0.10912,-0.0729 0.25458,-0.14571 0.14552,-0.10932 0.32738,-0.10932 0.32738,0 0.54563,0.21863 0.21825,0.21863 0.21825,0.51011 0,0.14579 -0.0727,0.29149 -0.0727,0.10931 -0.14552,0.25509 -0.10912,0.14576 -0.18186,0.32794 -0.94573,1.27538 -2.47357,2.62361 -1.52777,1.31177 -4.03767,2.62354 -0.4729,1.63972 -1.09133,3.2795 -0.58196,1.67618 -1.45504,2.98795 -0.87301,1.31177 -2.1098,2.1499 -1.20039,0.83805 -2.83728,0.83805 -0.83668,0 -1.60057,-0.29148 -0.72748,-0.25509 -1.30951,-0.72881 -0.54563,-0.43726 -0.87301,-1.09314 -0.32738,-0.61943 -0.32738,-1.34824 0,-0.91097 0.54563,-1.71263 0.58203,-0.7652 1.60056,-1.45755 1.01847,-0.69228 2.40078,-1.34817 1.41864,-0.61949 3.05561,-1.27538 0.29098,-1.02028 0.47283,-1.93126 0.18192,-0.91091 0.32738,-1.56686 -0.43651,0.51018 -1.01853,1.02029 -0.54564,0.47372 -1.20039,0.87451 -0.65476,0.36441 -1.38225,0.58304 -0.69115,0.25508 -1.38231,0.25508 -0.61836,0 -1.30951,-0.29148 -0.65476,-0.25509 -1.20039,-0.72881 -0.54563,-0.47371 -0.90941,-1.1296 -0.36378,-0.65589 -0.36378,-1.38463 0,-0.98389 0.32738,-2.44137 0.32738,-1.45755 0.76388,-2.95156 0.43651,-1.5304 0.90941,-2.87863 0.5093,-1.34823 0.83668,-2.11344 0.14546,-0.29155 0.40011,-0.47371 0.25465,-0.21863 0.58203,-0.21863 0.40011,0 0.90941,0.25509 0.50923,0.25502 0.94574,0.58303 0.4365,0.32794 0.72755,0.69228 0.29098,0.32794 0.29098,0.54657 0,0.72881 -0.36378,1.78549 -0.36377,1.05675 -0.83661,2.29567 -0.4365,1.23892 -0.80028,2.55069 -0.36378,1.31177 -0.36378,2.51423 0,0.43726 0.21826,0.7652 0.21825,0.32801 0.61842,0.32801 0.43651,0 0.90941,-0.21869 0.47284,-0.25502 0.90934,-0.61943 0.43651,-0.4008 0.80028,-0.83805 0.36378,-0.47372 0.58203,-0.91098 0.50924,-0.94743 0.94574,-2.11343 0.43651,-1.20253 0.80028,-2.40499 0.40018,-1.23891 0.69116,-2.40491 0.32738,-1.16607 0.61836,-2.11344 0.0728,-0.32794 0.36378,-0.51017 0.29104,-0.18217 0.65475,-0.18217 0.40018,0 0.87301,0.25509 0.50931,0.25502 0.94581,0.58303 0.4365,0.32794 0.72749,0.69228 0.29105,0.32794 0.29105,0.54657 0,0.40087 -0.21826,1.42116 -0.21825,1.02022 -0.54563,2.40491 -0.32738,1.34823 -0.76388,2.87864 -0.40018,1.5304 -0.80029,2.87863 z m -8.94849,9.4011 q 0.58203,0 1.12766,-0.43725 0.54563,-0.4008 1.01854,-1.09315 0.4729,-0.69234 0.87301,-1.63971 0.4001,-0.91098 0.72748,-1.89481 -0.98213,0.54657 -1.78242,1.12961 -0.80021,0.61942 -1.38224,1.20245 -0.58203,0.58304 -0.90941,1.09315 -0.32738,0.54657 -0.32738,0.91097 0,0.72874 0.65476,0.72874 z m -1.98751,-12.57128 q -0.80029,1.27538 -1.78242,2.25921 -0.83668,0.83805 -2.00067,1.5304 -1.12766,0.69234 -2.47358,0.69234 -1.52777,0 -2.5827,-0.7652 -1.05486,-0.80166 -1.23679,-2.33206 -0.72748,0.91098 -1.5641,1.56686 -0.72755,0.58297 -1.63696,1.05669 -0.9094,0.47371 -1.96427,0.47371 -0.72755,0 -1.41864,-0.29148 -0.65476,-0.25509 -1.16406,-0.76527 -0.4729,-0.51011 -0.76388,-1.20245 -0.29098,-0.69235 -0.29098,-1.53041 0,-1.96765 0.72748,-3.89892 0.76388,-1.93126 1.96428,-3.46167 1.20045,-1.56686 2.69182,-2.51423 1.49144,-0.94743 2.98281,-0.94743 1.09133,0 1.85521,0.29148 0.76389,0.25509 1.23679,0.58303 0.54563,0.40087 0.87301,0.83813 0.40011,0 0.83661,0.10931 0.47291,0.0729 0.83668,0.29149 0.40011,0.18216 0.65476,0.51011 0.25465,0.32801 0.25465,0.80166 0,0.40086 -0.32744,1.31184 -0.32738,0.9109 -0.72749,2.04051 -0.40011,1.09314 -0.72749,2.29567 -0.32744,1.16599 -0.32744,2.07697 0,0.43726 0.25465,0.72874 0.29105,0.29155 0.76388,0.29155 0.72755,0 1.41871,-0.47372 0.72749,-0.47372 1.27312,-1.09314 0.65476,-0.65589 1.20039,-1.56686 0.0361,-0.10932 0.18192,-0.25509 0.0727,-0.0729 0.21825,-0.14571 0.14546,-0.10931 0.32738,-0.10931 0.29098,0 0.50923,0.21862 0.25466,0.21863 0.25466,0.51012 0,0.14578 -0.0727,0.29148 -0.0361,0.10932 -0.10912,0.25509 -0.0728,0.14576 -0.14552,0.32794 z m -8.43919,-6.44962 q 0,-0.80166 -0.40018,-1.16606 -0.36371,-0.4008 -0.90934,-0.4008 -0.80028,0 -1.63696,0.83812 -0.83661,0.83806 -1.52777,2.07698 -0.65476,1.20245 -1.09126,2.62354 -0.43651,1.42116 -0.43651,2.55069 0,1.63979 1.05487,1.63979 0.65476,0 1.49144,-0.87452 0.87301,-0.87458 1.63689,-2.14989 0.76388,-1.27538 1.27318,-2.66001 0.54564,-1.42109 0.54564,-2.47784 z m -19.30247,-1.05675 q -0.14552,-0.1457 -0.29105,-0.29148 -0.14546,-0.10932 -0.32738,-0.18217 -0.18185,-0.10931 -0.4001,-0.10931 -0.87302,0 -1.78242,0.83805 -0.87301,0.83812 -1.60057,2.07704 -0.69115,1.20246 -1.12766,2.58708 -0.4365,1.3847 -0.4365,2.5143 0,0.98383 0.36377,1.5304 0.36378,0.54657 0.98214,0.54657 0.58203,0 1.27319,-0.43725 0.69108,-0.47372 1.30951,-1.05669 0.69116,-0.65595 1.41864,-1.53046 0.0361,-1.63972 0.18192,-3.20658 0.18186,-1.60332 0.43651,-3.2795 z m 3.89222,1.53047 q 1.60049,-2.62361 2.87368,-5.02853 0.54563,-1.02029 1.05486,-2.07697 0.54563,-1.09321 0.94581,-2.07704 0.40011,-0.98383 0.65476,-1.82188 0.25465,-0.83812 0.25465,-1.45755 0,-0.61949 -0.5093,-0.61949 -0.47291,0 -1.164,1.16606 -0.69115,1.12961 -1.45504,2.98795 -0.76388,1.85834 -1.49143,4.19041 -0.69116,2.33206 -1.16399,4.73704 z m 0.3637,10.45785 q -1.01853,0 -1.85514,-0.3644 -0.83661,-0.4008 -1.45504,-0.94737 -0.58203,-0.54657 -0.94574,-1.16606 -0.32738,-0.61943 -0.36378,-1.09315 -0.87301,1.02029 -1.85514,1.78549 -0.83668,0.69235 -1.92795,1.23892 -1.05493,0.54657 -2.18259,0.54657 -0.76388,0 -1.52777,-0.32794 -0.72748,-0.32794 -1.30951,-0.91097 -0.58203,-0.58304 -0.94574,-1.42109 -0.36378,-0.83812 -0.36378,-1.82195 0,-2.22275 0.87301,-4.08109 0.87301,-1.89481 2.18253,-3.20658 1.30958,-1.34823 2.80095,-2.07704 1.52777,-0.7652 2.80095,-0.7652 0.50924,0 0.94574,0.10932 0.43657,0.0729 0.72756,0.18216 0.36377,0.14578 0.61836,0.29155 0.61842,-2.22275 1.49143,-4.33618 0.87301,-2.11343 1.89155,-3.75321 1.05486,-1.63972 2.21892,-2.62355 1.16406,-0.98382 2.43718,-0.98382 0.54563,0 1.09126,0.29147 0.58203,0.29155 1.01853,0.7652 0.47291,0.47372 0.76389,1.09315 0.29105,0.61949 0.29105,1.23892 0,0.65588 -0.36378,1.63978 -0.32738,0.98383 -0.90941,2.14983 -0.54563,1.1296 -1.27311,2.36852 -0.69116,1.23892 -1.45504,2.44137 -1.74609,2.80578 -4.00135,5.97597 -0.0728,0.47365 -0.10912,0.94737 -0.0361,0.43725 -0.0361,0.87451 0,1.5304 0.4729,2.5143 0.47284,0.98383 1.49137,0.98383 0.72756,0 1.41865,-0.47372 0.69115,-0.47372 1.23678,-1.09314 0.65476,-0.65589 1.20046,-1.56686 0.0361,-0.10932 0.18185,-0.25509 0.0727,-0.0729 0.21826,-0.14571 0.14551,-0.10932 0.32738,-0.10932 0.29098,0 0.50923,0.21863 0.25465,0.21863 0.25465,0.51012 0,0.14578 -0.0727,0.29148 -0.0361,0.10931 -0.10914,0.25509 -0.0728,0.14576 -0.14551,0.32794 -0.80028,1.27538 -1.78242,2.25921 -0.83662,0.83805 -2.00067,1.5304 -1.12766,0.69235 -2.47358,0.69235 z" />
    <g
       id="g16011"
       transform="matrix(1.3828651,0,0,1.3813229,-1675.3547,-3358.3022)"
       style="stroke-width:0.716826">
      <path
         d="m 1306.4807,2499.2647 0.5681,-0.5681 9.4503,9.4505 -9.4503,9.4505 -0.5681,-0.5695 8.8823,-8.8812 z"
         fill="#ffffff"
         id="path16003"
         style="stroke-width:0.397857" />
      <path
         d="m 1306.4257,2499.2392 v 17.764 l 8.8821,-8.881 z"
         fill="#c8c8c8"
         id="path16005"
         style="stroke-width:0.504878" />
      <path
         d="m 1314.4384,2491.2617 -7.4819,7.4835 9.4505,9.4508 -9.4505,9.4508 7.4819,7.4821 16.9339,-16.9329 z"
         fill="#504999"
         style="fill:#5c2983;fill-opacity:1;stroke-width:0.504878;paint-order:stroke fill markers"
         id="path16007" />
      <path
         d="m 1313.2463,2511.4411 -6.2499,6.2446 9.2195,-2.0351 z"
         fill="#38257a"
         id="path16009"
         style="fill:#2d0b47;fill-opacity:1;stroke-width:0.504878" />
    </g>
    <path
       style="fill:none;fill-opacity:1;stroke:#5c2983;stroke-width:2.62127;stroke-linecap:round;stroke-miterlimit:4;stroke-dasharray:none;stroke-opacity:1;stop-color:#000000"
       d="M 165.29353,127.14163 H 150.57674"
       id="path16013" />
    <ellipse
       style="fill:#ffffff;fill-opacity:1;stroke:none;stroke-width:0.999999;stroke-linecap:round;stroke-linejoin:round;stop-color:#000000"
       id="path19253"
       cx="91.91687"
       cy="78.491455"
       rx="4.4017859"
       ry="3.6018229" />
  </g>
  <style
     id="style1284">.starOuter{fill:#f9ab00}.starCenter{fill:#e37400}.starGlyphs{fill:#fff}.text{fill:#1a2430}</style>
</svg>
