<svg xmlns="http://www.w3.org/2000/svg" xmlns:xlink="http://www.w3.org/1999/xlink" id="Ebene_1" x="0px" y="0px" viewBox="0 0 283.5 128.4" style="enable-background:new 0 0 283.5 128.4;" xml:space="preserve"><style type="text/css">	.st0{fill:#E1211C;}</style><g>	<path class="st0" d="M113.2,114.6c0,5.8-6.9,12.3-12.8,12.3c-3.7,0-10.3,0-10.3,0l0-102.7h23.2V114.6z"></path>	<path class="st0" d="M145.5,24.3 M140.6,24.3c2.3,0,29.7,0,29.7,0c11.2,0,19.6,2.3,25.1,7c5.6,4.7,8.3,11.1,8.3,19.3   c0,5.8-1.3,10.4-3.8,14c-2.5,3.6-5.8,6.3-9.9,8v0.3c11.5,3.2,17.3,11.3,17.3,24.2c0,4.6-0.7,8.8-2.1,12.4c-1.4,3.6-3.6,6.8-6.5,9.4   c-3,2.6-6.7,4.6-11.3,6c-4.6,1.4-10.1,2-16.6,2h-42.2c0,0,0-90.6,0-90.5C128.7,31.7,135.8,24.3,140.6,24.3z M184.4,95.3   c0-4.4-1-7.5-3.1-9.3c-2.1-1.9-5.6-2.8-10.7-2.8h-19.8V108h20.4c4.6,0,8-0.9,10.1-2.7C183.3,103.6,184.4,100.2,184.4,95.3z    M181.9,54.7c0-4.1-1-7-2.9-8.6c-1.9-1.6-5.1-2.4-9.4-2.4H151V66h19.1c4.1,0,7.1-0.9,9-2.6C180.9,61.7,181.9,58.8,181.9,54.7z"></path>	<path class="st0" d="M59.5,44.1C30.9,39.9,24,49.6,24,75.7c0,25.2,7,34.6,37.8,31.4c9.7-1,12,2.1,13.8,17.2   c-3.2,1.8-18.1,4.3-28.5,4c-15.5-0.5-28.4-4.3-35.8-13C3.7,106.6,0,93.2,0,74.9C0,38.2,16.5,23,48.6,23c15.7,0,26.2,4.7,26.2,4.7   C72.2,44.5,69.3,45.6,59.5,44.1z"></path>	<path class="st0" d="M264.5,83.1c7.5,0,19-12.2,19-18.8c0,0,0-64.3,0-64.3h-58.9v83.1H264.5z"></path></g></svg>