<?xml version="1.0" encoding="utf-8"?>
<!-- Generator: Adobe Illustrator 28.1.0, SVG Export Plug-In . SVG Version: 6.00 Build 0)  -->
<svg version="1.1" id="Vrstva_1" xmlns="http://www.w3.org/2000/svg" xmlns:xlink="http://www.w3.org/1999/xlink" x="0px" y="0px"
	 viewBox="0 0 417.3 149.9" style="enable-background:new 0 0 417.3 149.9;" xml:space="preserve">
<style type="text/css">
	.st0{fill:#FFFFFF;}
	.st1{fill:#1E1E1C;}
	.st2{fill:#2C2F78;}
</style>
<g>
	<rect x="59.1" y="51.4" class="st0" width="47.1" height="46.1"/>
	<path class="st2" d="M338.2,74.9c0-9.5,7.4-15.5,15.9-15.5c8.5,0,16,6,16,15.5s-7.4,15.7-16,15.7C345.5,90.6,338.2,84.4,338.2,74.9
		z M362.5,74.9c0-5.1-3.8-8.6-8.5-8.6c-4.6,0-8.4,3.5-8.4,8.6c0,5.3,3.8,8.8,8.4,8.8C358.7,83.7,362.5,80.1,362.5,74.9z"/>
	<path class="st2" d="M335.5,59.3c-3.7,0-6.5,0.6-8.6,5.1V60h-7.4v30h7.5V77.5c0-7.1,2.7-11.2,7.6-11.2c0.9,0,2,0.1,3.4,0.6v-7.4
		C337.2,59.4,336.3,59.3,335.5,59.3z"/>
	<path class="st2" d="M314.2,60v30h-7.4v-4c-2.1,3.2-6.3,4.7-9.9,4.7c-7.9,0-14.8-6.1-14.8-15.7c0-9.6,6.8-15.6,14.7-15.6
		c3.8,0,8,1.5,10,4.6v-4H314.2z M306.7,74.9c0-5.3-4.4-8.6-8.7-8.6c-4.6,0-8.4,3.6-8.4,8.6s3.8,8.7,8.4,8.7
		C302.5,83.6,306.7,80.1,306.7,74.9"/>
	<path class="st2" d="M269.9,46.6h7.4v43.3h-7.4V46.6z"/>
	<path class="st2" d="M264.3,60v30h-7.4v-4.7c-1.5,3.7-6.3,5.4-9.3,5.4c-7.7,0-12-5.1-12-13.9V60h7.4v16.1c0,4.8,2.9,7.3,6.2,7.3
		c3.4,0,7.6-1.9,7.6-7.7V60H264.3z"/>
	<path class="st2" d="M220.1,83.6c-5.2,0-8.9-3.7-8.9-8.7c0-5.1,3.7-8.7,8.9-8.7c2.4,0,4.7,0.9,6.3,2.5l5.4-4.2
		c-2.8-3.2-6.8-5.2-11.7-5.2c-8.7,0-16.3,6.1-16.3,15.6c0,9.5,7.6,15.6,16.3,15.6c4.9,0,9-2.1,11.7-5.2l-5.4-4.2
		C224.8,82.7,222.5,83.6,220.1,83.6z"/>
	<path class="st2" d="M199.6,59.3c-3.7,0-6.5,0.6-8.6,5.1V60h-7.4v30h7.5V77.5c0-7.1,2.7-11.2,7.6-11.2c0.9,0,2,0.1,3.4,0.6v-7.4
		C201.2,59.4,200.4,59.3,199.6,59.3z"/>
	<path class="st2" d="M170,60h7.4v30H170V60z"/>
	<path class="st2" d="M178.5,51.4c0,2.7-2.2,4.8-4.8,4.8c-2.7,0-4.8-2.2-4.8-4.8c0-2.7,2.2-4.8,4.8-4.8
		C176.4,46.6,178.5,48.8,178.5,51.4z"/>
	<path class="st2" d="M154.4,83.6c-5.2,0-8.9-3.7-8.9-8.7c0-5.1,3.7-8.7,8.9-8.7c2.4,0,4.7,0.9,6.3,2.5l5.4-4.2
		c-2.8-3.2-6.8-5.2-11.7-5.2c-8.7,0-16.3,6.1-16.3,15.6c0,9.5,7.6,15.6,16.3,15.6c4.9,0,9-2.1,11.7-5.2l-5.4-4.2
		C159.1,82.7,156.8,83.6,154.4,83.6z"/>
	<path class="st2" d="M71.7,74.9L71.7,74.9L71.7,74.9L71.7,74.9L71.7,74.9z M71.7,74.9L71.7,74.9L71.7,74.9L71.7,74.9L71.7,74.9z
		 M83.2,38.9c-19.9,0-36,16.1-36,36c0,19.9,16.1,36,36,36s36-16.1,36-36C119.3,55,103.2,38.9,83.2,38.9L83.2,38.9z M83.2,63.5
		l-5.7,5.7l-5.7,5.7l5.7,5.7l5.7,5.7l5.7-5.7c3.2-3.2,8.3-3.2,11.5,0c3.2,3.2,3.2,8.3,0,11.5c-3.2,3.2-8.3,3.2-11.5,0l-5.7-5.7
		l-5.7,5.7c-3.2,3.2-8.3,3.2-11.5,0c-3.2-3.2-3.2-8.3,0-11.5l5.7-5.7L66,69.2c-3.2-3.2-3.2-8.3,0-11.5c3.2-3.2,8.3-3.2,11.5,0
		L83.2,63.5l5.7-5.7c3.2-3.2,8.3-3.2,11.5,0c3.2,3.2,3.2,8.3,0,11.5c-3.2,3.2-8.3,3.2-11.5,0L83.2,63.5z M86.7,74.9
		c0,1.9-1.6,3.5-3.5,3.5s-3.5-1.6-3.5-3.5c0-1.9,1.6-3.5,3.5-3.5S86.7,73,86.7,74.9L86.7,74.9z M71.7,74.9L71.7,74.9L71.7,74.9
		L71.7,74.9L71.7,74.9z M71.7,74.9L71.7,74.9L71.7,74.9L71.7,74.9L71.7,74.9z M71.7,74.9L71.7,74.9L71.7,74.9L71.7,74.9L71.7,74.9z"
		/>
</g>
</svg>
