<?xml version="1.0" encoding="UTF-8" standalone="no"?>
<!-- Created with Inkscape (http://www.inkscape.org/) -->

<svg
   width="600"
   height="249.99998"
   viewBox="0 0 158.75 66.145828"
   version="1.1"
   id="svg5"
   xml:space="preserve"
   inkscape:export-filename="collabora-office-white.svg"
   inkscape:export-xdpi="88.055756"
   inkscape:export-ydpi="88.055756"
   xmlns:inkscape="http://www.inkscape.org/namespaces/inkscape"
   xmlns:sodipodi="http://sodipodi.sourceforge.net/DTD/sodipodi-0.dtd"
   xmlns="http://www.w3.org/2000/svg"
   xmlns:svg="http://www.w3.org/2000/svg"><sodipodi:namedview
     id="namedview7"
     pagecolor="#ffffff"
     bordercolor="#666666"
     borderopacity="1.0"
     inkscape:showpageshadow="2"
     inkscape:pageopacity="0.0"
     inkscape:pagecheckerboard="0"
     inkscape:deskcolor="#d1d1d1"
     inkscape:document-units="mm"
     showgrid="false" /><defs
     id="defs2" /><g
     inkscape:label="Layer 1"
     inkscape:groupmode="layer"
     id="layer1"><g
       id="g1377"
       transform="matrix(1.2349588,0,0,1.2349588,-11.017072,-8.4306446)"><g
         id="COffice-logomark"
         transform="matrix(0.79058116,0,0,0.7855015,7.6901661,7.9840747)"
         style="stroke:none;stroke-width:1.26897"
         inkscape:label="COffice-logomark"><path
           style="fill:#ffffff;stroke:none;stroke-width:1.26898px;stroke-linecap:butt;stroke-linejoin:miter;stroke-opacity:1"
           d="M 2.0988724,16.566254 3.1191844,15.539343 20.091471,32.621383 3.1191844,49.703423 2.0988724,48.674025 18.050844,32.621383 Z"
           id="path1178"
           inkscape:connector-curvature="0" /><path
           transform="matrix(1.2648923,0,0,1.273072,64.142828,-8.1840554)"
           d="M -49.050781,19.441406 V 44.662109 L -36.439453,32.052734 Z"
           style="fill:#c8c8c8;fill-opacity:1;stroke:none;stroke-width:1px;stroke-linecap:butt;stroke-linejoin:miter;stroke-opacity:1"
           id="path1156-6"
           inkscape:connector-curvature="0" /><path
           sodipodi:nodetypes="ccccccc"
           transform="matrix(1.2648923,0,0,1.273072,64.142828,-8.1840554)"
           d="M -37.621094,8.0097656 -48.244141,18.634766 -34.826172,32.052734 -48.244141,45.470703 -37.621094,56.09375 -13.578125,32.052734 Z"
           style="fill:#5c2983;fill-opacity:1;stroke:none;stroke-width:6.00001;stroke-linejoin:round;paint-order:stroke fill markers"
           id="rect1144-1"
           inkscape:connector-curvature="0" /><path
           sodipodi:nodetypes="cccc"
           transform="matrix(1.2648923,0,0,1.273072,64.142828,-8.1840554)"
           d="m -38.115234,35.341797 -8.873675,8.865852 13.090471,-2.88929 z"
           style="fill:#2d0b47;fill-opacity:1;stroke:none;stroke-width:1.68107"
           id="polygon1099"
           inkscape:connector-curvature="0" /></g><g
         id="COffice-txt"
         inkscape:label="COffice-txt"
         transform="translate(0,-7.8099874)"
         style="fill:#5c2983;fill-opacity:1"><g
           id="text1246-8"
           style="font-size:17.9798px;line-height:1.25;font-family:'Segoe UI';-inkscape-font-specification:'Segoe UI';letter-spacing:0px;word-spacing:0px;fill:#5c2983;fill-opacity:1;stroke-width:1"
           aria-label="Collabora"><path
             inkscape:connector-curvature="0"
             id="path866"
             style="font-style:normal;font-variant:normal;font-weight:normal;font-stretch:normal;font-family:Montserrat;-inkscape-font-specification:Montserrat;fill:#5c2983;fill-opacity:1;stroke-width:1"
             d="m 59.3668,36.43419 q 1.096767,0 1.887879,-0.359596 0.791111,-0.377576 1.654141,-1.186667 l 1.366465,1.402424 q -1.995758,2.211516 -4.854546,2.211516 -2.840808,0 -4.728687,-1.83394 -1.869899,-1.833939 -1.869899,-4.638788 0,-2.804849 1.905859,-4.674748 1.923838,-1.869899 4.836566,-1.869899 2.930707,0 4.890505,2.157576 l -1.348485,1.474344 q -0.89899,-0.863031 -1.708081,-1.204647 -0.791111,-0.341616 -1.869899,-0.341616 -1.905859,0 -3.200404,1.240606 -1.294546,1.222626 -1.294546,3.146465 0,1.905859 1.276566,3.200404 1.294545,1.276566 3.056566,1.276566 z" /><path
             inkscape:connector-curvature="0"
             id="path868"
             style="font-style:normal;font-variant:normal;font-weight:normal;font-stretch:normal;font-family:Montserrat;-inkscape-font-specification:Montserrat;fill:#5c2983;fill-opacity:1;stroke-width:1"
             d="m 68.536441,35.840857 q 0.86303,0.86303 2.175556,0.86303 1.312525,0 2.157576,-0.86303 0.86303,-0.881011 0.86303,-2.265455 0,-1.384445 -0.86303,-2.247475 -0.845051,-0.88101 -2.157576,-0.88101 -1.312526,0 -2.175556,0.88101 -0.845051,0.86303 -0.845051,2.247475 0,1.384444 0.845051,2.265455 z m 5.771516,1.240606 q -1.438384,1.420404 -3.59596,1.420404 -2.157576,0 -3.59596,-1.420404 -1.438384,-1.438384 -1.438384,-3.506061 0,-2.067677 1.438384,-3.488081 1.438384,-1.438384 3.59596,-1.438384 2.157576,0 3.59596,1.438384 1.438383,1.420404 1.438383,3.488081 0,2.067677 -1.438383,3.506061 z" /><path
             inkscape:connector-curvature="0"
             id="path870"
             style="font-style:normal;font-variant:normal;font-weight:normal;font-stretch:normal;font-family:Montserrat;-inkscape-font-specification:Montserrat;fill:#5c2983;fill-opacity:1;stroke-width:1"
             d="M 80.043485,38.358028 H 78.029747 V 25.017017 h 2.013738 z" /><path
             inkscape:connector-curvature="0"
             id="path872-7"
             style="font-style:normal;font-variant:normal;font-weight:normal;font-stretch:normal;font-family:Montserrat;-inkscape-font-specification:Montserrat;fill:#5c2983;fill-opacity:1;stroke-width:1"
             d="M 84.969918,38.358028 H 82.956181 V 25.017017 h 2.013737 z" /><path
             inkscape:connector-curvature="0"
             id="path874-9"
             style="font-style:normal;font-variant:normal;font-weight:normal;font-stretch:normal;font-family:Montserrat;-inkscape-font-specification:Montserrat;fill:#5c2983;fill-opacity:1;stroke-width:1"
             d="m 95.631908,38.358028 h -1.83394 v -1.276565 q -1.186667,1.420404 -3.182424,1.420404 -1.492324,0 -2.481213,-0.845051 -0.970909,-0.84505 -0.970909,-2.247475 0,-1.420404 1.042829,-2.121616 1.042828,-0.701212 2.822828,-0.701212 h 2.607071 v -0.359596 q 0,-1.905859 -2.121616,-1.905859 -1.330505,0 -2.768889,0.970909 l -0.89899,-1.258586 q 1.74404,-1.384444 3.955555,-1.384444 1.690102,0 2.75091,0.86303 1.078788,0.845051 1.078788,2.67899 z m -2.013738,-3.56 v -0.809091 h -2.265455 q -2.175555,0 -2.175555,1.366465 0,0.701212 0.539394,1.078788 0.539394,0.359596 1.492323,0.359596 0.970909,0 1.690101,-0.539394 0.719192,-0.539394 0.719192,-1.456364 z" /><path
             inkscape:connector-curvature="0"
             id="path876-2"
             style="font-style:normal;font-variant:normal;font-weight:normal;font-stretch:normal;font-family:Montserrat;-inkscape-font-specification:Montserrat;fill:#5c2983;fill-opacity:1;stroke-width:1"
             d="m 103.561,28.648937 q 1.92384,0 3.2903,1.330505 1.36647,1.330505 1.36647,3.54202 0,2.211516 -1.36647,3.59596 -1.34848,1.384445 -3.16444,1.384445 -1.79798,0 -3.23637,-1.582223 v 1.438384 H 98.436756 V 25.017017 h 2.013734 v 5.44788 q 1.18667,-1.81596 3.11051,-1.81596 z m -3.14647,4.944445 q 0,1.366464 0.82707,2.247475 0.82708,0.86303 2.01374,0.86303 1.18667,0 2.06768,-0.86303 0.88101,-0.863031 0.88101,-2.229496 0,-1.384444 -0.86303,-2.283434 -0.86303,-0.91697 -2.06768,-0.91697 -1.20464,0 -2.03172,0.91697 -0.82707,0.89899 -0.82707,2.265455 z" /><path
             inkscape:connector-curvature="0"
             id="path878-0"
             style="font-style:normal;font-variant:normal;font-weight:normal;font-stretch:normal;font-family:Montserrat;-inkscape-font-specification:Montserrat;fill:#5c2983;fill-opacity:1;stroke-width:1"
             d="m 112.74866,35.840857 q 0.86303,0.86303 2.17555,0.86303 1.31253,0 2.15758,-0.86303 0.86303,-0.881011 0.86303,-2.265455 0,-1.384445 -0.86303,-2.247475 -0.84505,-0.88101 -2.15758,-0.88101 -1.31252,0 -2.17555,0.88101 -0.84505,0.86303 -0.84505,2.247475 0,1.384444 0.84505,2.265455 z m 5.77151,1.240606 q -1.43838,1.420404 -3.59596,1.420404 -2.15757,0 -3.59596,-1.420404 -1.43838,-1.438384 -1.43838,-3.506061 0,-2.067677 1.43838,-3.488081 1.43839,-1.438384 3.59596,-1.438384 2.15758,0 3.59596,1.438384 1.43839,1.420404 1.43839,3.488081 0,2.067677 -1.43839,3.506061 z" /><path
             inkscape:connector-curvature="0"
             id="path880-2"
             style="font-style:normal;font-variant:normal;font-weight:normal;font-stretch:normal;font-family:Montserrat;-inkscape-font-specification:Montserrat;fill:#5c2983;fill-opacity:1;stroke-width:1"
             d="m 127.25833,30.680654 q -1.49232,0 -2.24747,0.970909 -0.75516,0.970909 -0.75516,2.607071 v 4.099394 h -2.01373 v -9.565253 h 2.01373 v 1.923839 q 0.48546,-0.89899 1.31253,-1.474344 0.84505,-0.575353 1.78,-0.593333 l 0.018,2.031717 q -0.0539,0 -0.10788,0 z" /><path
             inkscape:connector-curvature="0"
             id="path882-3"
             style="font-style:normal;font-variant:normal;font-weight:normal;font-stretch:normal;font-family:Montserrat;-inkscape-font-specification:Montserrat;fill:#5c2983;fill-opacity:1;stroke-width:1"
             d="m 137.03931,38.358028 h -1.83394 v -1.276565 q -1.18667,1.420404 -3.18242,1.420404 -1.49233,0 -2.48122,-0.845051 -0.97091,-0.84505 -0.97091,-2.247475 0,-1.420404 1.04283,-2.121616 1.04283,-0.701212 2.82283,-0.701212 h 2.60707 v -0.359596 q 0,-1.905859 -2.12161,-1.905859 -1.33051,0 -2.76889,0.970909 l -0.89899,-1.258586 q 1.74404,-1.384444 3.95555,-1.384444 1.6901,0 2.75091,0.86303 1.07879,0.845051 1.07879,2.67899 z m -2.01374,-3.56 v -0.809091 h -2.26545 q -2.17556,0 -2.17556,1.366465 0,0.701212 0.5394,1.078788 0.53939,0.359596 1.49232,0.359596 0.97091,0 1.6901,-0.539394 0.71919,-0.539394 0.71919,-1.456364 z" /></g><g
           id="text1254-7"
           style="font-size:17.9798px;line-height:1.25;font-family:'Segoe UI';-inkscape-font-specification:'Segoe UI';letter-spacing:0px;word-spacing:0px;fill:#5c2983;fill-opacity:1;stroke-width:1"
           aria-label="Office"><path
             inkscape:connector-curvature="0"
             id="path853-5"
             style="font-style:normal;font-variant:normal;font-weight:normal;font-stretch:normal;font-family:Montserrat;-inkscape-font-specification:Montserrat;fill:#5c2983;fill-opacity:1;stroke-width:1"
             d="m 62.585184,48.072394 q -1.276566,-1.330505 -3.146465,-1.330505 -1.869899,0 -3.164445,1.330505 -1.276566,1.330505 -1.276566,3.236364 0,1.887879 1.276566,3.218384 1.294546,1.330505 3.164445,1.330505 1.869899,0 3.146465,-1.330505 1.294545,-1.330505 1.294545,-3.218384 0,-1.905859 -1.294545,-3.236364 z m 1.564242,7.875152 q -1.905858,1.851919 -4.710707,1.851919 -2.804849,0 -4.710707,-1.851919 -1.905859,-1.869899 -1.905859,-4.638788 0,-2.786869 1.905859,-4.638788 1.905858,-1.869899 4.710707,-1.869899 2.804849,0 4.710707,1.869899 1.905859,1.851919 1.905859,4.638788 0,2.768889 -1.905859,4.638788 z" /><path
             inkscape:connector-curvature="0"
             id="path855-9"
             style="font-style:normal;font-variant:normal;font-weight:normal;font-stretch:normal;font-family:Montserrat;-inkscape-font-specification:Montserrat;fill:#5c2983;fill-opacity:1;stroke-width:1"
             d="m 70.927779,47.317242 v 0.791112 h 2.517172 v 1.618182 h -2.517172 v 7.947071 h -2.013738 v -7.947071 h -1.204646 v -1.618182 h 1.204646 v -0.737172 q 0,-1.510303 0.89899,-2.391313 0.91697,-0.89899 2.193536,-0.89899 1.294545,0 2.355354,0.952929 l -0.827071,1.420404 q -0.593334,-0.629293 -1.240606,-0.629293 -0.647273,0 -1.006869,0.413536 -0.359596,0.395555 -0.359596,1.078787 z" /><path
             inkscape:connector-curvature="0"
             id="path857-2"
             style="font-style:normal;font-variant:normal;font-weight:normal;font-stretch:normal;font-family:Montserrat;-inkscape-font-specification:Montserrat;fill:#5c2983;fill-opacity:1;stroke-width:1"
             d="m 77.867977,47.317242 v 0.791112 h 2.517172 v 1.618182 h -2.517172 v 7.947071 h -2.013738 v -7.947071 h -1.204646 v -1.618182 h 1.204646 v -0.737172 q 0,-1.510303 0.89899,-2.391313 0.91697,-0.89899 2.193536,-0.89899 1.294545,0 2.355354,0.952929 l -0.827071,1.420404 q -0.593334,-0.629293 -1.240606,-0.629293 -0.647273,0 -1.006869,0.413536 -0.359596,0.395555 -0.359596,1.078787 z" /><path
             inkscape:connector-curvature="0"
             id="path859-2"
             style="font-style:normal;font-variant:normal;font-weight:normal;font-stretch:normal;font-family:Montserrat;-inkscape-font-specification:Montserrat;fill:#5c2983;fill-opacity:1;stroke-width:1"
             d="m 84.340699,57.673607 h -2.013737 v -9.565253 h 2.013737 z M 82.45282,46.202495 q -0.377576,-0.377576 -0.377576,-0.89899 0,-0.521414 0.377576,-0.89899 0.377576,-0.377576 0.89899,-0.377576 0.521414,0 0.89899,0.377576 0.377576,0.377576 0.377576,0.89899 0,0.521414 -0.377576,0.89899 -0.377576,0.377576 -0.89899,0.377576 -0.521414,0 -0.89899,-0.377576 z" /><path
             inkscape:connector-curvature="0"
             id="path861-8"
             style="font-style:normal;font-variant:normal;font-weight:normal;font-stretch:normal;font-family:Montserrat;-inkscape-font-specification:Montserrat;fill:#5c2983;fill-opacity:1;stroke-width:1"
             d="m 91.496628,57.817445 q -1.995758,0 -3.434142,-1.348485 -1.438384,-1.366464 -1.438384,-3.56 0,-2.193535 1.492324,-3.56 1.510303,-1.384445 3.667879,-1.384445 2.157575,0 3.649899,1.492324 l -1.186667,1.456363 q -1.240606,-1.078788 -2.499192,-1.078788 -1.258586,0 -2.193536,0.845051 -0.916969,0.827071 -0.916969,2.157576 0,1.312525 0.916969,2.229495 0.91697,0.91697 2.247475,0.91697 1.348485,0 2.535152,-1.222627 l 1.186667,1.294546 q -1.744041,1.76202 -4.027475,1.76202 z" /><path
             inkscape:connector-curvature="0"
             id="path863-9"
             style="font-style:normal;font-variant:normal;font-weight:normal;font-stretch:normal;font-family:Montserrat;-inkscape-font-specification:Montserrat;fill:#5c2983;fill-opacity:1;stroke-width:1"
             d="m 106.50973,53.77199 h -7.49758 q 0.07192,1.042829 0.95293,1.690102 0.88101,0.629293 2.01374,0.629293 1.79798,0 2.73293,-1.132728 l 1.1507,1.258586 q -1.54626,1.600202 -4.02747,1.600202 -2.013739,0 -3.434143,-1.330505 -1.402424,-1.348485 -1.402424,-3.59596 0,-2.265454 1.438384,-3.59596 1.438384,-1.330505 3.380203,-1.330505 1.9598,0 3.32626,1.186667 1.36647,1.168687 1.36647,3.236364 z m -7.49758,-1.582222 h 5.48384 q 0,-1.204646 -0.75515,-1.851919 -0.75515,-0.647273 -1.8699,-0.647273 -1.09677,0 -1.977779,0.683232 -0.881011,0.665253 -0.881011,1.81596 z" /></g></g></g></g></svg>
